<svg version="1.2" baseProfile="tiny-ps" xmlns="http://www.w3.org/2000/svg" viewBox="0 0 1200 800" width="1200" height="800">
	<title>19362653-ai</title>
	<defs>
		<linearGradient id="grd1" gradientUnits="userSpaceOnUse"  x1="303.424" y1="489.364" x2="303.424" y2="352.691">
			<stop offset="0" stop-color="#dbccff"  />
			<stop offset="1" stop-color="#d1bbff"  />
		</linearGradient>
		<linearGradient id="grd2" gradientUnits="userSpaceOnUse"  x1="305.776" y1="494.397" x2="305.776" y2="357.723">
			<stop offset="0" stop-color="#b5a6e7"  />
			<stop offset="1" stop-color="#7760bf"  />
		</linearGradient>
		<linearGradient id="grd3" gradientUnits="userSpaceOnUse"  x1="309.698" y1="462.039" x2="309.698" y2="404.494">
			<stop offset="0" stop-color="#b5a6e7"  />
			<stop offset="1" stop-color="#7760bf"  />
		</linearGradient>
		<linearGradient id="grd4" gradientUnits="userSpaceOnUse"  x1="288.813" y1="406.88" x2="304.245" y2="399.67">
			<stop offset="0" stop-color="#8b8be0"  />
			<stop offset="1" stop-color="#a177b7"  />
		</linearGradient>
		<linearGradient id="grd5" gradientUnits="userSpaceOnUse"  x1="285.13" y1="418.163" x2="280.765" y2="408.821">
			<stop offset="0" stop-color="#ffffff"  />
			<stop offset="1" stop-color="#a177b7"  />
		</linearGradient>
		<linearGradient id="grd6" gradientUnits="userSpaceOnUse"  x1="327.638" y1="465.616" x2="299.633" y2="405.675">
			<stop offset="0" stop-color="#000000"  />
			<stop offset="1" stop-color="#ffffff"  />
		</linearGradient>
		<linearGradient id="grd7" gradientUnits="userSpaceOnUse"  x1="424.698" y1="800" x2="424.698" y2="621.58">
			<stop offset="0" stop-color="#6456c0"  />
			<stop offset="1" stop-color="#5f2c95"  />
		</linearGradient>
		<radialGradient id="grd8" gradientUnits="userSpaceOnUse"  cx="473.719" cy="735.833" r="31.402">
			<stop offset="0" stop-color="#4b474b"  />
			<stop offset="1" stop-color="#000000"  />
		</radialGradient>
		<radialGradient id="grd9" gradientUnits="userSpaceOnUse"  cx="640.12" cy="734.934" r="31.614">
			<stop offset="0" stop-color="#4b474b"  />
			<stop offset="1" stop-color="#000000"  />
		</radialGradient>
		<linearGradient id="grd10" gradientUnits="userSpaceOnUse"  x1="502.854" y1="670.643" x2="549.649" y2="670.643">
			<stop offset="0" stop-color="#9e8cef"  />
			<stop offset="1" stop-color="#caafee"  />
		</linearGradient>
		<linearGradient id="grd11" gradientUnits="userSpaceOnUse"  x1="612.205" y1="670.646" x2="565.406" y2="670.646">
			<stop offset="0" stop-color="#9e8cef"  />
			<stop offset="1" stop-color="#caafee"  />
		</linearGradient>
		<linearGradient id="grd12" gradientUnits="userSpaceOnUse"  x1="458.62" y1="800" x2="458.62" y2="621.58">
			<stop offset="0" stop-color="#ccccff"  />
			<stop offset="1" stop-color="#755cbb"  />
		</linearGradient>
		<linearGradient id="grd13" gradientUnits="userSpaceOnUse"  x1="561.74" y1="710.79" x2="561.74" y2="662.126">
			<stop offset="0" stop-color="#ccccff"  />
			<stop offset="1" stop-color="#755cbb"  />
		</linearGradient>
		<linearGradient id="grd14" gradientUnits="userSpaceOnUse"  x1="484.133" y1="692.895" x2="484.133" y2="645.218">
			<stop offset="0" stop-color="#ccccff"  />
			<stop offset="1" stop-color="#755cbb"  />
		</linearGradient>
		<linearGradient id="grd15" gradientUnits="userSpaceOnUse"  x1="526.619" y1="352.9" x2="526.619" y2="281.68">
			<stop offset="0" stop-color="#d5cdf8"  />
			<stop offset="1" stop-color="#f3edfb"  />
		</linearGradient>
		<linearGradient id="grd16" gradientUnits="userSpaceOnUse"  x1="530.42" y1="277.68" x2="600.092" y2="277.68">
			<stop offset="0" stop-color="#ccccff"  />
			<stop offset="1" stop-color="#755cbb"  />
		</linearGradient>
		<linearGradient id="grd17" gradientUnits="userSpaceOnUse"  x1="372.016" y1="634.885" x2="372.016" y2="278.58">
			<stop offset="0" stop-color="#9e8cef"  />
			<stop offset="1" stop-color="#caafee"  />
		</linearGradient>
		<linearGradient id="grd18" gradientUnits="userSpaceOnUse"  x1="397.18" y1="323.64" x2="484.58" y2="323.64">
			<stop offset="0" stop-color="#ccccff"  />
			<stop offset="1" stop-color="#755cbb"  />
		</linearGradient>
		<linearGradient id="grd19" gradientUnits="userSpaceOnUse"  x1="347.511" y1="514.34" x2="347.511" y2="346.52">
			<stop offset="0" stop-color="#9e8cef"  />
			<stop offset="1" stop-color="#dac7f3"  />
		</linearGradient>
		<linearGradient id="grd20" gradientUnits="userSpaceOnUse"  x1="687.322" y1="400.726" x2="794.825" y2="400.726">
			<stop offset="0" stop-color="#a999f1"  />
			<stop offset="1" stop-color="#dac7f3"  />
		</linearGradient>
		<linearGradient id="grd21" gradientUnits="userSpaceOnUse"  x1="335.737" y1="323.455" x2="335.737" y2="279.48">
			<stop offset="0.016" stop-color="#ffc2a9"  />
			<stop offset="1" stop-color="#ff9595"  />
		</linearGradient>
		<linearGradient id="grd22" gradientUnits="userSpaceOnUse"  x1="365.2" y1="322.589" x2="365.2" y2="249.343">
			<stop offset="0" stop-color="#ffeadb"  />
			<stop offset="0.994" stop-color="#c27cb6"  />
		</linearGradient>
		<linearGradient id="grd23" gradientUnits="userSpaceOnUse"  x1="345.858" y1="372.42" x2="345.858" y2="259.5">
			<stop offset="0.016" stop-color="#ffc2a9"  />
			<stop offset="1" stop-color="#ff9595"  />
		</linearGradient>
		<linearGradient id="grd24" gradientUnits="userSpaceOnUse"  x1="363.14" y1="333.177" x2="398.644" y2="333.177">
			<stop offset="0.016" stop-color="#d1a1d6"  />
			<stop offset="0.994" stop-color="#bd89c4"  />
		</linearGradient>
		<linearGradient id="grd25" gradientUnits="userSpaceOnUse"  x1="735.206" y1="441.2" x2="735.206" y2="290.828">
			<stop offset="0.016" stop-color="#ffc2a9"  />
			<stop offset="1" stop-color="#ff9595"  />
		</linearGradient>
		<linearGradient id="grd26" gradientUnits="userSpaceOnUse"  x1="775.6" y1="392.82" x2="775.6" y2="317.8">
			<stop offset="0" stop-color="#ffeadb"  />
			<stop offset="0.994" stop-color="#c27cb6"  />
		</linearGradient>
		<linearGradient id="grd27" gradientUnits="userSpaceOnUse"  x1="808.821" y1="366.926" x2="808.821" y2="334.071">
			<stop offset="0" stop-color="#ffb0b0"  />
			<stop offset="0.984" stop-color="#ffc2a9"  />
		</linearGradient>
		<linearGradient id="grd28" gradientUnits="userSpaceOnUse"  x1="837.852" y1="372.105" x2="837.852" y2="353.663">
			<stop offset="0" stop-color="#ffb0b0"  />
			<stop offset="0.984" stop-color="#ffc2a9"  />
		</linearGradient>
		<linearGradient id="grd29" gradientUnits="userSpaceOnUse"  x1="771.26" y1="387.06" x2="805.56" y2="387.06">
			<stop offset="0.016" stop-color="#d1a1d6"  />
			<stop offset="0.994" stop-color="#bd89c4"  />
		</linearGradient>
		<linearGradient id="grd30" gradientUnits="userSpaceOnUse"  x1="647.405" y1="526.883" x2="647.405" y2="358.22">
			<stop offset="0" stop-color="#ccccff"  />
			<stop offset="1" stop-color="#755cbb"  />
		</linearGradient>
		<linearGradient id="grd31" gradientUnits="userSpaceOnUse"  x1="351.38" y1="344.956" x2="634.08" y2="344.956">
			<stop offset="0" stop-color="#ccccff"  />
			<stop offset="1" stop-color="#755cbb"  />
		</linearGradient>
		<linearGradient id="grd32" gradientUnits="userSpaceOnUse"  x1="600.611" y1="429.747" x2="654.647" y2="429.747">
			<stop offset="0" stop-color="#ccedff"  />
			<stop offset="1" stop-color="#755cbb"  />
		</linearGradient>
		<linearGradient id="grd33" gradientUnits="userSpaceOnUse"  x1="551.6" y1="519.637" x2="631.012" y2="519.637">
			<stop offset="0" stop-color="#ccedff"  />
			<stop offset="1" stop-color="#755cbb"  />
		</linearGradient>
		<linearGradient id="grd34" gradientUnits="userSpaceOnUse"  x1="555.676" y1="557.857" x2="640.12" y2="557.857">
			<stop offset="0" stop-color="#ccedff"  />
			<stop offset="1" stop-color="#755cbb"  />
		</linearGradient>
		<linearGradient id="grd35" gradientUnits="userSpaceOnUse"  x1="422.42" y1="487.72" x2="422.42" y2="392.5">
			<stop offset="0" stop-color="#ccedff"  />
			<stop offset="1" stop-color="#755cbb"  />
		</linearGradient>
		<linearGradient id="grd36" gradientUnits="userSpaceOnUse"  x1="461.46" y1="495.724" x2="461.46" y2="423.544">
			<stop offset="0" stop-color="#ccedff"  />
			<stop offset="1" stop-color="#755cbb"  />
		</linearGradient>
		<linearGradient id="grd37" gradientUnits="userSpaceOnUse"  x1="349.88" y1="402.673" x2="349.88" y2="348.92">
			<stop offset="0" stop-color="#ccedff"  />
			<stop offset="1" stop-color="#755cbb"  />
		</linearGradient>
		<linearGradient id="grd38" gradientUnits="userSpaceOnUse"  x1="419.98" y1="323.64" x2="441.958" y2="323.64">
			<stop offset="0" stop-color="#ccedff"  />
			<stop offset="1" stop-color="#755cbb"  />
		</linearGradient>
		<linearGradient id="grd39" gradientUnits="userSpaceOnUse"  x1="647.46" y1="487.72" x2="647.46" y2="386.64">
			<stop offset="0" stop-color="#ccccff"  />
			<stop offset="1" stop-color="#755cbb"  />
		</linearGradient>
		<linearGradient id="grd40" gradientUnits="userSpaceOnUse"  x1="759.65" y1="465.98" x2="759.65" y2="413.16">
			<stop offset="0" stop-color="#ccccff"  />
			<stop offset="1" stop-color="#755cbb"  />
		</linearGradient>
		<linearGradient id="grd41" gradientUnits="userSpaceOnUse"  x1="688.463" y1="463.62" x2="688.463" y2="423.24">
			<stop offset="0" stop-color="#ccccff"  />
			<stop offset="1" stop-color="#755cbb"  />
		</linearGradient>
		<linearGradient id="grd42" gradientUnits="userSpaceOnUse"  x1="347.408" y1="404.416" x2="347.408" y2="391.94">
			<stop offset="0" stop-color="#ccedff"  />
			<stop offset="1" stop-color="#755cbb"  />
		</linearGradient>
		<linearGradient id="grd43" gradientUnits="userSpaceOnUse"  x1="387.494" y1="452.654" x2="387.494" y2="370.7">
			<stop offset="0" stop-color="#ccccff"  />
			<stop offset="1" stop-color="#755cbb"  />
		</linearGradient>
		<linearGradient id="grd44" gradientUnits="userSpaceOnUse"  x1="589.884" y1="394.968" x2="589.884" y2="333.296">
			<stop offset="0" stop-color="#ccedff"  />
			<stop offset="1" stop-color="#755cbb"  />
		</linearGradient>
		<linearGradient id="grd45" gradientUnits="userSpaceOnUse"  x1="497.735" y1="386.632" x2="497.735" y2="301.512">
			<stop offset="0" stop-color="#ccedff"  />
			<stop offset="1" stop-color="#755cbb"  />
		</linearGradient>
		<linearGradient id="grd46" gradientUnits="userSpaceOnUse"  x1="505.802" y1="381.656" x2="647.971" y2="381.656">
			<stop offset="0" stop-color="#8642a0"  />
			<stop offset="1" stop-color="#6456c0"  />
		</linearGradient>
		<linearGradient id="grd47" gradientUnits="userSpaceOnUse"  x1="518.06" y1="274.58" x2="610.58" y2="274.58">
			<stop offset="0" stop-color="#ccccff"  />
			<stop offset="1" stop-color="#755cbb"  />
		</linearGradient>
		<linearGradient id="grd48" gradientUnits="userSpaceOnUse"  x1="743.909" y1="459.958" x2="743.909" y2="406.415">
			<stop offset="0" stop-color="#ccccff"  />
			<stop offset="1" stop-color="#755cbb"  />
		</linearGradient>
		<linearGradient id="grd49" gradientUnits="userSpaceOnUse"  x1="647.46" y1="520.36" x2="647.46" y2="358.22">
			<stop offset="0" stop-color="#ccccff"  />
			<stop offset="1" stop-color="#755cbb"  />
		</linearGradient>
		<linearGradient id="grd50" gradientUnits="userSpaceOnUse"  x1="465.64" y1="596.52" x2="465.64" y2="550.04">
			<stop offset="0" stop-color="#ccccff"  />
			<stop offset="1" stop-color="#755cbb"  />
		</linearGradient>
		<linearGradient id="grd51" gradientUnits="userSpaceOnUse"  x1="551.28" y1="580.345" x2="551.28" y2="561.18">
			<stop offset="0" stop-color="#ccccff"  />
			<stop offset="1" stop-color="#755cbb"  />
		</linearGradient>
		<linearGradient id="grd52" gradientUnits="userSpaceOnUse"  x1="538.48" y1="290.93" x2="538.48" y2="143.817">
			<stop offset="0.016" stop-color="#ffc2a9"  />
			<stop offset="1" stop-color="#ff9595"  />
		</linearGradient>
		<linearGradient id="grd53" gradientUnits="userSpaceOnUse"  x1="520.76" y1="230.173" x2="520.76" y2="185.789">
			<stop offset="0.016" stop-color="#ffc2a9"  />
			<stop offset="1" stop-color="#ff9595"  />
		</linearGradient>
		<linearGradient id="grd54" gradientUnits="userSpaceOnUse"  x1="592.324" y1="243.135" x2="594.031" y2="234.248">
			<stop offset="0" stop-color="#e1616a"  />
			<stop offset="1" stop-color="#ff8883"  />
		</linearGradient>
		<linearGradient id="grd55" gradientUnits="userSpaceOnUse"  x1="546.883" y1="240.926" x2="546.883" y2="141.453">
			<stop offset="0" stop-color="#ffeadb"  />
			<stop offset="0.994" stop-color="#c27cb6"  />
		</linearGradient>
		<linearGradient id="grd56" gradientUnits="userSpaceOnUse"  x1="579.495" y1="200.189" x2="579.495" y2="180.484">
			<stop offset="0" stop-color="#cf6074"  />
			<stop offset="1" stop-color="#f37270"  />
		</linearGradient>
		<linearGradient id="grd57" gradientUnits="userSpaceOnUse"  x1="623.591" y1="206.442" x2="623.591" y2="189.295">
			<stop offset="0" stop-color="#cf6074"  />
			<stop offset="1" stop-color="#ff817f"  />
		</linearGradient>
		<linearGradient id="grd58" gradientUnits="userSpaceOnUse"  x1="623.503" y1="216.42" x2="623.503" y2="178.123">
			<stop offset="0" stop-color="#ffeadb"  />
			<stop offset="0.994" stop-color="#c27cb6"  />
		</linearGradient>
		<linearGradient id="grd59" gradientUnits="userSpaceOnUse"  x1="535.978" y1="292.703" x2="535.978" y2="108.3">
			<stop offset="0" stop-color="#2e33a0"  />
			<stop offset="1" stop-color="#0665a5"  />
		</linearGradient>
		<linearGradient id="grd60" gradientUnits="userSpaceOnUse"  x1="634.533" y1="177.64" x2="634.533" y2="134.44">
			<stop offset="0" stop-color="#ffeadb"  />
			<stop offset="0.994" stop-color="#8860c7"  />
		</linearGradient>
		<linearGradient id="grd61" gradientUnits="userSpaceOnUse"  x1="535.948" y1="292.703" x2="535.948" y2="108.3">
			<stop offset="0" stop-color="#ccc2db"  />
			<stop offset="0.994" stop-color="#8860c7"  />
		</linearGradient>
		<linearGradient id="grd62" gradientUnits="userSpaceOnUse"  x1="574.615" y1="293.58" x2="574.615" y2="287.798">
			<stop offset="0" stop-color="#776d7e"  />
			<stop offset="1" stop-color="#9d68c2"  />
		</linearGradient>
		<linearGradient id="grd63" gradientUnits="userSpaceOnUse"  x1="603.36" y1="121.74" x2="603.36" y2="116.1">
			<stop offset="0" stop-color="#1f77d1"  />
			<stop offset="1" stop-color="#0686c9"  />
		</linearGradient>
		<linearGradient id="grd64" gradientUnits="userSpaceOnUse"  x1="556.934" y1="141.42" x2="556.934" y2="124.909">
			<stop offset="0" stop-color="#1f77d1"  />
			<stop offset="1" stop-color="#0686c9"  />
		</linearGradient>
		<linearGradient id="grd65" gradientUnits="userSpaceOnUse"  x1="640.88" y1="150.38" x2="640.88" y2="134.44">
			<stop offset="0" stop-color="#1f77d1"  />
			<stop offset="1" stop-color="#0686c9"  />
		</linearGradient>
		<linearGradient id="grd66" gradientUnits="userSpaceOnUse"  x1="531.525" y1="231.278" x2="511.134" y2="206.296">
			<stop offset="0" stop-color="#ffeadb"  />
			<stop offset="0.994" stop-color="#b060f4"  />
		</linearGradient>
		<linearGradient id="grd67" gradientUnits="userSpaceOnUse"  x1="535.916" y1="224.988" x2="526.471" y2="213.416">
			<stop offset="0" stop-color="#ffeadb"  />
			<stop offset="0.994" stop-color="#b060f4"  />
		</linearGradient>
		<linearGradient id="grd68" gradientUnits="userSpaceOnUse"  x1="584.486" y1="136.206" x2="619.02" y2="136.206">
			<stop offset="0" stop-color="#1f77d1"  />
			<stop offset="1" stop-color="#0686c9"  />
		</linearGradient>
		<linearGradient id="grd69" gradientUnits="userSpaceOnUse"  x1="633.195" y1="232.623" x2="643.669" y2="232.623">
			<stop offset="0" stop-color="#1f77d1"  />
			<stop offset="1" stop-color="#0686c9"  />
		</linearGradient>
		<linearGradient id="grd70" gradientUnits="userSpaceOnUse"  x1="620.263" y1="231.12" x2="631.56" y2="231.12">
			<stop offset="0" stop-color="#1f77d1"  />
			<stop offset="1" stop-color="#0686c9"  />
		</linearGradient>
		<linearGradient id="grd71" gradientUnits="userSpaceOnUse"  x1="703.72" y1="249.216" x2="1057.232" y2="249.216">
			<stop offset="0" stop-color="#9d68c2"  />
			<stop offset="1" stop-color="#aec2ff"  />
		</linearGradient>
		<linearGradient id="grd72" gradientUnits="userSpaceOnUse"  x1="717.552" y1="399.639" x2="717.552" y2="292.835">
			<stop offset="0" stop-color="#ccedff"  />
			<stop offset="1" stop-color="#9d68c2"  />
		</linearGradient>
		<linearGradient id="grd73" gradientUnits="userSpaceOnUse"  x1="930.223" y1="347.567" x2="930.223" y2="300.522">
			<stop offset="0" stop-color="#ccedff"  />
			<stop offset="1" stop-color="#9d68c2"  />
		</linearGradient>
		<linearGradient id="grd74" gradientUnits="userSpaceOnUse"  x1="985.73" y1="347.567" x2="985.73" y2="300.522">
			<stop offset="0" stop-color="#ccedff"  />
			<stop offset="1" stop-color="#9d68c2"  />
		</linearGradient>
		<linearGradient id="grd75" gradientUnits="userSpaceOnUse"  x1="873.789" y1="347.567" x2="873.789" y2="300.522">
			<stop offset="0" stop-color="#ccedff"  />
			<stop offset="1" stop-color="#9d68c2"  />
		</linearGradient>
		<linearGradient id="grd76" gradientUnits="userSpaceOnUse"  x1="362.699" y1="231.975" x2="362.699" y2="182.731">
			<stop offset="0" stop-color="#d93de3"  />
			<stop offset="1" stop-color="#ff6dba"  />
		</linearGradient>
		<linearGradient id="grd77" gradientUnits="userSpaceOnUse"  x1="419.211" y1="231.975" x2="419.211" y2="182.731">
			<stop offset="0" stop-color="#a242ea"  />
			<stop offset="1" stop-color="#fe117e"  />
		</linearGradient>
		<linearGradient id="grd78" gradientUnits="userSpaceOnUse"  x1="259.438" y1="734.717" x2="286.068" y2="522.688">
			<stop offset="0" stop-color="#067eff"  />
			<stop offset="1" stop-color="#3e37a0"  />
		</linearGradient>
		<linearGradient id="grd79" gradientUnits="userSpaceOnUse"  x1="995.561" y1="226.617" x2="995.561" y2="208.742">
			<stop offset="0" stop-color="#459fff"  />
			<stop offset="1" stop-color="#a96dff"  />
		</linearGradient>
		<linearGradient id="grd80" gradientUnits="userSpaceOnUse"  x1="153.388" y1="436.077" x2="153.388" y2="413.83">
			<stop offset="0" stop-color="#459fff"  />
			<stop offset="1" stop-color="#a96dff"  />
		</linearGradient>
		<linearGradient id="grd81" gradientUnits="userSpaceOnUse"  x1="1021.811" y1="226.617" x2="1021.811" y2="208.742">
			<stop offset="0" stop-color="#b31a8f"  />
			<stop offset="1" stop-color="#fe117e"  />
		</linearGradient>
		<linearGradient id="grd82" gradientUnits="userSpaceOnUse"  x1="448.087" y1="285.451" x2="448.087" y2="272.812">
			<stop offset="0" stop-color="#b31a8f"  />
			<stop offset="1" stop-color="#fe117e"  />
		</linearGradient>
		<linearGradient id="grd83" gradientUnits="userSpaceOnUse"  x1="871.4" y1="564.326" x2="871.4" y2="551.687">
			<stop offset="0" stop-color="#8642a0"  />
			<stop offset="1" stop-color="#6456c0"  />
		</linearGradient>
		<linearGradient id="grd84" gradientUnits="userSpaceOnUse"  x1="215.027" y1="626.665" x2="215.027" y2="615.366">
			<stop offset="0" stop-color="#8642a0"  />
			<stop offset="1" stop-color="#6456c0"  />
		</linearGradient>
		<linearGradient id="grd85" gradientUnits="userSpaceOnUse"  x1="202.672" y1="565.543" x2="202.672" y2="472.218">
			<stop offset="0" stop-color="#d906e3"  />
			<stop offset="1" stop-color="#ff6df9"  />
		</linearGradient>
		<linearGradient id="grd86" gradientUnits="userSpaceOnUse"  x1="830.632" y1="697.643" x2="830.632" y2="580.895">
			<stop offset="0" stop-color="#d906e3"  />
			<stop offset="1" stop-color="#ff6df9"  />
		</linearGradient>
		<linearGradient id="grd87" gradientUnits="userSpaceOnUse"  x1="771.328" y1="631.949" x2="771.328" y2="547.726">
			<stop offset="0" stop-color="#1852a0"  />
			<stop offset="1" stop-color="#067ed3"  />
		</linearGradient>
		<linearGradient id="grd88" gradientUnits="userSpaceOnUse"  x1="764.919" y1="631.949" x2="764.919" y2="542.183">
			<stop offset="0" stop-color="#1852a0"  />
			<stop offset="1" stop-color="#067ed3"  />
		</linearGradient>
		<linearGradient id="grd89" gradientUnits="userSpaceOnUse"  x1="756.235" y1="627.028" x2="756.235" y2="542.183">
			<stop offset="0" stop-color="#188dc1"  />
			<stop offset="1" stop-color="#06bfe7"  />
		</linearGradient>
		<linearGradient id="grd90" gradientUnits="userSpaceOnUse"  x1="773.012" y1="162.277" x2="795.675" y2="78.11">
			<stop offset="0" stop-color="#188dc1"  />
			<stop offset="1" stop-color="#06bfe7"  />
		</linearGradient>
		<linearGradient id="grd91" gradientUnits="userSpaceOnUse"  x1="771.353" y1="162.609" x2="788.253" y2="99.845">
			<stop offset="0" stop-color="#1852a0"  />
			<stop offset="1" stop-color="#067ed3"  />
		</linearGradient>
		<linearGradient id="grd92" gradientUnits="userSpaceOnUse"  x1="205.931" y1="311.322" x2="190.481" y2="253.944">
			<stop offset="0" stop-color="#188dc1"  />
			<stop offset="1" stop-color="#06bfe7"  />
		</linearGradient>
		<linearGradient id="grd93" gradientUnits="userSpaceOnUse"  x1="207.062" y1="311.549" x2="195.541" y2="268.761">
			<stop offset="0" stop-color="#1852a0"  />
			<stop offset="1" stop-color="#067ed3"  />
		</linearGradient>
	</defs>
	<style>
		tspan { white-space:pre }
		.shp0 { fill: #f1f1f4 } 
		.shp1 { fill: #e0f3ff } 
		.shp2 { fill: url(#grd1) } 
		.shp3 { fill: url(#grd2) } 
		.shp4 { fill: #e5e2ff } 
		.shp5 { fill: url(#grd3) } 
		.shp6 { opacity: 0.62;mix-blend-mode: multiply;fill: url(#grd4) } 
		.shp7 { opacity: 0.62;mix-blend-mode: multiply;fill: url(#grd5) } 
		.shp8 { opacity: 0.502;mix-blend-mode: screen;fill: url(#grd6) } 
		.shp9 { fill: #ffffff } 
		.shp10 { fill: url(#grd7) } 
		.shp11 { opacity: 0.502;mix-blend-mode: screen;fill: url(#grd8) } 
		.shp12 { opacity: 0.502;mix-blend-mode: screen;fill: url(#grd9) } 
		.shp13 { fill: url(#grd10) } 
		.shp14 { fill: url(#grd11) } 
		.shp15 { opacity: 0.761;mix-blend-mode: multiply;fill: url(#grd12) } 
		.shp16 { opacity: 0.761;mix-blend-mode: multiply;fill: url(#grd13) } 
		.shp17 { opacity: 0.761;mix-blend-mode: multiply;fill: url(#grd14) } 
		.shp18 { fill: #fe9083 } 
		.shp19 { fill: url(#grd15) } 
		.shp20 { opacity: 0.502;mix-blend-mode: multiply;fill: url(#grd16) } 
		.shp21 { fill: url(#grd17) } 
		.shp22 { opacity: 0.502;mix-blend-mode: multiply;fill: url(#grd18) } 
		.shp23 { fill: url(#grd19) } 
		.shp24 { fill: url(#grd20) } 
		.shp25 { fill: #cb4d7a } 
		.shp26 { fill: #ee8183 } 
		.shp27 { fill: url(#grd21) } 
		.shp28 { opacity: 0.6;mix-blend-mode: multiply;fill: url(#grd22) } 
		.shp29 { fill: url(#grd23) } 
		.shp30 { fill: #e28183 } 
		.shp31 { opacity: 0.91;mix-blend-mode: multiply;fill: url(#grd24) } 
		.shp32 { fill: url(#grd25) } 
		.shp33 { opacity: 0.6;mix-blend-mode: multiply;fill: url(#grd26) } 
		.shp34 { fill: url(#grd27) } 
		.shp35 { fill: url(#grd28) } 
		.shp36 { opacity: 0.91;mix-blend-mode: multiply;fill: url(#grd29) } 
		.shp37 { opacity: 0.502;mix-blend-mode: multiply;fill: url(#grd30) } 
		.shp38 { opacity: 0.502;mix-blend-mode: multiply;fill: url(#grd31) } 
		.shp39 { opacity: 0.502;mix-blend-mode: multiply;fill: url(#grd32) } 
		.shp40 { opacity: 0.502;mix-blend-mode: multiply;fill: url(#grd33) } 
		.shp41 { opacity: 0.502;mix-blend-mode: multiply;fill: url(#grd34) } 
		.shp42 { opacity: 0.502;mix-blend-mode: multiply;fill: url(#grd35) } 
		.shp43 { opacity: 0.502;mix-blend-mode: multiply;fill: url(#grd36) } 
		.shp44 { opacity: 0.502;mix-blend-mode: multiply;fill: url(#grd37) } 
		.shp45 { opacity: 0.502;mix-blend-mode: multiply;fill: url(#grd38) } 
		.shp46 { opacity: 0.761;mix-blend-mode: multiply;fill: url(#grd39) } 
		.shp47 { opacity: 0.502;mix-blend-mode: multiply;fill: url(#grd40) } 
		.shp48 { opacity: 0.302;mix-blend-mode: multiply;fill: url(#grd41) } 
		.shp49 { opacity: 0.502;mix-blend-mode: multiply;fill: url(#grd42) } 
		.shp50 { opacity: 0.502;mix-blend-mode: multiply;fill: url(#grd43) } 
		.shp51 { opacity: 0.502;mix-blend-mode: multiply;fill: url(#grd44) } 
		.shp52 { opacity: 0.502;mix-blend-mode: multiply;fill: url(#grd45) } 
		.shp53 { fill: url(#grd46) } 
		.shp54 { fill: #ebefff } 
		.shp55 { opacity: 0.502;mix-blend-mode: multiply;fill: url(#grd47) } 
		.shp56 { opacity: 0.302;mix-blend-mode: multiply;fill: url(#grd48) } 
		.shp57 { opacity: 0.502;mix-blend-mode: multiply;fill: url(#grd49) } 
		.shp58 { opacity: 0.502;mix-blend-mode: multiply;fill: url(#grd50) } 
		.shp59 { opacity: 0.502;mix-blend-mode: multiply;fill: url(#grd51) } 
		.shp60 { opacity: 0.502;mix-blend-mode: multiply;fill: #7a4ac0 } 
		.shp61 { fill: url(#grd52) } 
		.shp62 { fill: url(#grd53) } 
		.shp63 { fill: url(#grd54) } 
		.shp64 { opacity: 0.6;mix-blend-mode: multiply;fill: url(#grd55) } 
		.shp65 { fill: #38368e } 
		.shp66 { fill: url(#grd56) } 
		.shp67 { fill: url(#grd57) } 
		.shp68 { fill: #ffebed } 
		.shp69 { fill: #7f9ec9 } 
		.shp70 { fill: #131163 } 
		.shp71 { fill: #c6659c } 
		.shp72 { fill: #cb5f7d } 
		.shp73 { fill: #9f4a8b } 
		.shp74 { fill: #ffbcaf } 
		.shp75 { opacity: 0.6;mix-blend-mode: multiply;fill: url(#grd58) } 
		.shp76 { fill: url(#grd59) } 
		.shp77 { fill: #d2726c } 
		.shp78 { opacity: 0.6;mix-blend-mode: multiply;fill: url(#grd60) } 
		.shp79 { opacity: 0.6;mix-blend-mode: multiply;fill: url(#grd61) } 
		.shp80 { opacity: 0.502;mix-blend-mode: multiply;fill: url(#grd62) } 
		.shp81 { fill: url(#grd63) } 
		.shp82 { fill: url(#grd64) } 
		.shp83 { fill: url(#grd65) } 
		.shp84 { opacity: 0.8;mix-blend-mode: multiply;fill: url(#grd66) } 
		.shp85 { opacity: 0.8;mix-blend-mode: multiply;fill: url(#grd67) } 
		.shp86 { fill: #34c7ff } 
		.shp87 { fill: url(#grd68) } 
		.shp88 { fill: url(#grd69) } 
		.shp89 { fill: url(#grd70) } 
		.shp90 { opacity: 0.6;fill: #36d1f7 } 
		.shp91 { fill: #744ca2 } 
		.shp92 { opacity: 0.6;mix-blend-mode: multiply;fill: url(#grd71) } 
		.shp93 { opacity: 0.302;mix-blend-mode: multiply;fill: url(#grd72) } 
		.shp94 { opacity: 0.302;mix-blend-mode: multiply;fill: url(#grd73) } 
		.shp95 { opacity: 0.302;mix-blend-mode: multiply;fill: url(#grd74) } 
		.shp96 { opacity: 0.302;mix-blend-mode: multiply;fill: url(#grd75) } 
		.shp97 { mix-blend-mode: multiply;fill: #d1d4fb } 
		.shp98 { fill: #e0ffff } 
		.shp99 { fill: url(#grd76) } 
		.shp100 { fill: url(#grd77) } 
		.shp101 { opacity: 0.812;fill: url(#grd78) } 
		.shp102 { fill: #473da2 } 
		.shp103 { fill: url(#grd79) } 
		.shp104 { fill: url(#grd80) } 
		.shp105 { fill: url(#grd81) } 
		.shp106 { fill: url(#grd82) } 
		.shp107 { fill: url(#grd83) } 
		.shp108 { fill: url(#grd84) } 
		.shp109 { opacity: 0.729;fill: url(#grd85) } 
		.shp110 { fill: #953da2 } 
		.shp111 { opacity: 0.729;fill: url(#grd86) } 
		.shp112 { fill: url(#grd87) } 
		.shp113 { fill: url(#grd88) } 
		.shp114 { fill: url(#grd89) } 
		.shp115 { opacity: 0.502;mix-blend-mode: multiply;fill: #601734 } 
		.shp116 { mix-blend-mode: soft-light;fill: #b3d9ff } 
		.shp117 { fill: #ff1d9c } 
		.shp118 { fill: #6877ff } 
		.shp119 { fill: #4f31e0 } 
		.shp120 { fill: url(#grd90) } 
		.shp121 { fill: url(#grd91) } 
		.shp122 { fill: url(#grd92) } 
		.shp123 { fill: url(#grd93) } 
	</style>
	<g id="illustration">
		<g id="&lt;Clip Group&gt;">
			<g id="&lt;Group&gt;">
				<path id="&lt;Compound Path&gt;" fill-rule="evenodd" class="shp0" d="M296.42 392.19C296.44 391.7 296.67 391.46 297.13 391.48L310.55 391.88C311.88 391.92 313 392.13 313.92 392.49C314.85 392.85 315.59 393.35 316.14 393.98C316.7 394.62 317.09 395.37 317.33 396.26C317.56 397.14 317.66 398.13 317.63 399.21L317.52 402.89C317.48 403.97 317.32 404.95 317.04 405.81C316.75 406.68 316.31 407.42 315.72 408.01C315.12 408.61 314.35 409.06 313.41 409.37C312.47 409.68 311.33 409.81 310 409.77L302.78 409.55L301.29 405.33L301.09 405.32L300.96 409.5L295.9 409.34L296.42 392.19ZM301.1 404.85L309.68 405.11C310.65 405.14 311.34 404.95 311.76 404.54C312.19 404.12 312.41 403.38 312.44 402.3L312.54 399.3C312.57 398.18 312.39 397.42 311.99 397.01C311.59 396.59 310.91 396.37 309.95 396.34L301.74 396.09C301.63 396.09 301.53 396.12 301.46 396.19C301.4 396.27 301.36 396.35 301.36 396.45L301.1 404.85Z" />
				<path id="&lt;Compound Path&gt;" class="shp0" d="M324.89 399.87L324.72 399.86L324.56 405.22C324.55 405.45 324.66 405.57 324.89 405.57L339.98 406.03L339.83 410.68L320.06 410.08C319.58 410.06 319.35 409.81 319.37 409.32L319.86 392.9C319.88 392.41 320.12 392.17 320.6 392.19L339.81 392.77C340.3 392.79 340.54 393.04 340.53 393.53L340.39 398.18L335.64 399.78L335.44 399.77L335.51 397.39C335.52 397.21 335.44 397.12 335.28 397.11L325.13 396.8C325 396.8 324.91 396.83 324.87 396.9C324.83 396.98 324.8 397.06 324.8 397.14L324.73 399.37L333.09 399.63L332.98 403.26L325.97 403.05L324.89 399.87Z" />
				<path id="&lt;Compound Path&gt;" class="shp0" d="M358.42 399.53L358.22 399.53L358.28 397.56C358.29 397.37 358.2 397.26 358 397.26L348.56 396.97C348.22 396.96 347.98 397.03 347.84 397.17C347.71 397.32 347.63 397.53 347.63 397.8L347.61 398.25C347.6 398.59 347.65 398.81 347.76 398.92C347.88 399.02 348.1 399.1 348.42 399.16L359.48 401.04C360.18 401.16 360.78 401.33 361.26 401.55C361.75 401.77 362.14 402.05 362.44 402.4C362.74 402.74 362.95 403.16 363.07 403.66C363.18 404.15 363.23 404.74 363.21 405.41L363.17 406.83C363.15 407.57 363.04 408.22 362.84 408.78C362.64 409.34 362.33 409.8 361.91 410.18C361.49 410.55 360.94 410.83 360.26 411C359.58 411.18 358.75 411.25 357.77 411.22L341.85 410.74L341.99 406.09L356.26 406.53C356.69 406.54 356.98 406.47 357.12 406.32C357.26 406.17 357.34 405.9 357.35 405.5L357.37 405.01C357.38 404.7 357.33 404.48 357.23 404.36C357.13 404.23 356.92 404.14 356.61 404.1L345.94 402.43C345.22 402.3 344.61 402.14 344.1 401.93C343.59 401.72 343.17 401.44 342.85 401.1C342.54 400.77 342.31 400.36 342.18 399.88C342.05 399.4 341.99 398.83 342.01 398.17L342.05 396.92C342.09 395.63 342.46 394.64 343.17 393.94C343.88 393.25 345.04 392.93 346.64 392.98L362.54 393.46C363.05 393.48 363.29 393.75 363.28 394.27L363.17 397.96L358.42 399.53Z" />
				<path id="&lt;Compound Path&gt;" class="shp0" d="M365.14 411.44L365.68 393.56L370.75 393.71L370.2 411.6L365.14 411.44Z" />
				<path id="&lt;Compound Path&gt;" class="shp0" d="M388.99 404.49C388.99 404.23 388.99 403.96 388.97 403.67C388.96 403.38 388.94 403.13 388.91 402.92L388.92 402.7L393.93 402.85L393.66 411.62C393.65 412.08 393.44 412.3 393.03 412.29L379.56 411.88C378.24 411.84 377.11 411.64 376.19 411.28C375.27 410.91 374.53 410.41 373.97 409.78C373.42 409.15 373.02 408.39 372.79 407.51C372.55 406.63 372.45 405.64 372.48 404.56L372.59 400.87C372.63 399.79 372.79 398.82 373.08 397.95C373.36 397.08 373.8 396.35 374.4 395.75C374.99 395.16 375.76 394.7 376.7 394.4C377.64 394.09 378.78 393.95 380.11 394L393.5 394.4C393.97 394.42 394.2 394.67 394.19 395.16L394.07 399.02L389.32 400.6L389.13 400.59L389.18 398.87C389.19 398.7 389.12 398.62 388.97 398.62L380.42 398.36C379.93 398.34 379.51 398.38 379.17 398.45C378.83 398.54 378.55 398.68 378.33 398.9C378.12 399.11 377.95 399.4 377.84 399.77C377.73 400.13 377.67 400.59 377.65 401.13L377.56 404.27C377.52 405.35 377.7 406.11 378.1 406.55C378.5 406.99 379.18 407.22 380.15 407.25L388.63 407.51C388.8 407.51 388.9 407.42 388.9 407.22L388.99 404.49Z" />
				<path id="&lt;Compound Path&gt;" class="shp0" d="M404.63 394.74C405.01 394.75 405.27 394.82 405.42 394.94C405.57 395.06 405.71 395.24 405.84 395.49L412.23 408.55C412.34 408.74 412.49 408.85 412.69 408.85L412.95 408.86C413.22 408.87 413.35 408.74 413.36 408.48L413.77 395.02L418.36 395.16L417.84 412.33C417.83 412.81 417.59 413.04 417.13 413.02L409.86 412.8C409.52 412.79 409.26 412.73 409.09 412.63C408.92 412.53 408.77 412.34 408.63 412.05L401.99 399.01C401.9 398.81 401.74 398.71 401.53 398.7L401.29 398.7C401.03 398.69 400.89 398.82 400.88 399.08L400.47 412.52L395.88 412.38L396.4 395.23C396.42 394.74 396.65 394.5 397.11 394.51L404.63 394.74Z" />
			</g>
			<path id="&lt;Path&gt;" class="shp1" d="M848.14 391.06C848.14 562.29 709.33 701.1 538.1 701.1C366.87 701.1 228.06 562.29 228.06 391.06C228.06 219.83 366.87 81.02 538.1 81.02C709.33 81.02 848.14 219.83 848.14 391.06Z" />
			<g id="&lt;Group&gt;">
				<path id="&lt;Compound Path&gt;" fill-rule="evenodd" class="shp2" d="M312.55 376.25C313.03 379.29 311.69 384.56 305.35 391.24L331.96 455.74C337.24 456.64 342 460.03 344.44 465.24C348.4 473.72 344.74 483.8 336.26 487.77C327.77 491.73 317.69 488.07 313.73 479.59C311.29 474.37 311.76 468.55 314.45 463.92L282.04 402.1C272.65 402.68 267.79 400.17 265.93 397.99C265.7 397.72 264.91 396.05 263.58 392.96C260.13 383.45 259.91 374.09 262.91 364.88L267.61 362.69L275.55 383.13C279.93 385.57 284.24 386.36 288.48 385.5L288.5 385.54C291.87 382.83 294.03 379.02 294.97 374.1L284.39 354.89L289.09 352.69C298.08 356.29 305.11 362.47 310.19 371.22C311.69 374.14 312.48 375.82 312.55 376.25ZM337.67 468.4L329.9 462.97L321.32 466.98L320.5 476.42L328.26 481.85L336.85 477.84L337.67 468.4Z" />
				<path id="&lt;Compound Path&gt;" fill-rule="evenodd" class="shp3" d="M307.71 396.27L334.32 460.77C339.59 461.68 344.36 465.06 346.79 470.27C350.76 478.76 347.1 488.83 338.61 492.8C330.12 496.76 320.05 493.1 316.08 484.62C313.64 479.4 314.11 473.58 316.8 468.95L284.39 407.13C276.97 407.59 270.81 404.54 265.93 397.99C262.48 388.48 262.26 379.12 265.26 369.92L269.96 367.72L277.9 388.16C282.28 390.6 286.59 391.39 290.83 390.54L290.85 390.57C294.22 387.86 296.38 384.05 297.32 379.13L286.74 359.92L291.44 357.72C300.43 361.33 307.46 367.5 312.55 376.25C314.43 384.2 312.82 390.87 307.71 396.27ZM340.02 473.43L332.26 468.01L323.67 472.02L322.85 481.45L330.62 486.88L339.2 482.87L340.02 473.43Z" />
				<path id="&lt;Path&gt;" class="shp4" d="M262.91 364.88L265.26 369.92L269.96 367.72L267.61 362.69L262.91 364.88Z" />
				<path id="&lt;Path&gt;" class="shp4" d="M284.39 354.89L286.74 359.92L291.44 357.72L289.09 352.69L284.39 354.89Z" />
				<path id="&lt;Path&gt;" class="shp4" d="M328.26 481.85L330.62 486.88L339.2 482.87L336.85 477.84L328.26 481.85Z" />
				<g id="&lt;Group&gt;">
					<path id="&lt;Compound Path&gt;" fill-rule="evenodd" class="shp5" d="M306.76 404.51L328.07 457.09C325.61 460.59 322.09 462.23 317.5 462.02L291.33 411.72C295.24 406.68 300.38 404.27 306.76 404.51ZM305.61 405.48C303.42 405.77 301.25 406.4 299.13 407.39C296.31 408.71 294.12 410.39 292.83 411.52L319.05 460.79C320.29 460.62 321.5 460.26 322.66 459.71C324.12 459.03 325.28 458.16 326.05 457.5L305.61 405.48Z" />
					<path id="&lt;Path&gt;" class="shp4" d="M326.05 457.5L328.07 457.09C326.07 460.64 322.55 462.28 317.5 462.02L319.05 460.79C321.53 460.5 323.86 459.4 326.05 457.5Z" />
					<path id="&lt;Path&gt;" class="shp6" d="M291.33 411.72L292.83 411.52C295.82 408.43 300.08 406.41 305.61 405.48L306.76 404.51C304.54 404.12 301.69 404.74 298.22 406.36C294.75 407.98 292.46 409.76 291.33 411.72Z" />
				</g>
				<path id="&lt;Path&gt;" class="shp7" d="M284.39 407.13C292.78 405.64 300.55 402.02 307.71 396.27L311.11 404.52C308.54 401.97 304.43 401.85 298.78 404.15C292.17 406.85 289.05 410.85 289.41 416.16L284.39 407.13Z" />
				<path id="&lt;Path&gt;" class="shp8" d="M311.11 404.52C309.5 403.37 307.77 402.77 305.93 402.73L331.26 463.92L334.32 460.77L311.11 404.52Z" />
				<path id="&lt;Path&gt;" class="shp9" d="M311.11 404.52C309.34 409.97 310.99 413.99 316.08 416.57L311.11 404.52Z" />
			</g>
			<g id="&lt;Group&gt;">
				<g id="&lt;Group&gt;">
					<path id="&lt;Path&gt;" class="shp10" d="M692.46 800L598.46 800C591.9 763.57 580.99 721.66 565.74 674.26C562.03 672.06 556.56 672.31 549.32 675.02L514.96 800L429.08 800C426.04 748.59 438.59 693.7 466.72 635.34L466.7 635.32C466.56 635.02 465.22 632.34 465.58 630.54C465.72 629.76 467.16 628.28 468.78 626.82C470.33 625.41 472.02 623.99 473.86 622.58L634.08 621.58C635.16 622.13 636.39 622.81 637.76 623.64L637.78 623.64C641.28 625.76 646.02 629.04 646.02 631.44C646.02 634.74 644.72 636.88 644.4 637.36L644.32 637.46C667.22 680.68 683.27 734.86 692.46 800Z" />
					<path id="&lt;Path&gt;" class="shp11" d="M508.65 743.89C497.15 793.74 472.19 830.53 452.9 826.08C433.6 821.63 427.29 777.62 438.79 727.77C450.29 677.93 475.25 641.13 494.54 645.58C513.83 650.03 520.15 694.05 508.65 743.89Z" />
					<path id="&lt;Path&gt;" class="shp12" d="M674.64 725.26C688.44 774.52 684.18 818.78 665.11 824.12C646.05 829.46 619.4 793.86 605.6 744.61C591.8 695.35 596.06 651.09 615.13 645.75C634.19 640.41 660.84 676.01 674.64 725.26Z" />
					<g id="&lt;Group&gt;">
						<path id="&lt;Path&gt;" class="shp13" d="M503.84 800.08L502.85 799.92C513.79 735.52 541.53 681.51 541.81 680.97L541.92 680.82L548.99 674.64L549.65 675.4L542.65 681.51C541.41 683.95 514.54 737.03 503.84 800.08Z" />
					</g>
					<g id="&lt;Group&gt;">
						<path id="&lt;Path&gt;" class="shp14" d="M611.22 800.08C600.51 736.98 572.9 683.39 571.66 681.01L565.41 675.39L566.07 674.65L572.51 680.46C572.79 681.01 601.27 735.52 612.21 799.92L611.22 800.08Z" />
					</g>
					<path id="&lt;Path&gt;" class="shp15" d="M646.02 631.44C646.02 634.74 644.72 636.88 644.4 637.36L644.32 637.46C622.08 642.49 602.5 655.38 585.58 676.14C597.7 699.39 613.87 740.68 634.08 800L598.46 800C591.9 763.57 580.99 721.66 565.74 674.26C562.03 672.06 556.56 672.31 549.32 675.02L514.96 800L492.72 800C498.03 765.09 508.51 726.33 524.18 683.72C508.78 665.79 489.63 649.66 466.72 635.34L466.7 635.32L462.62 632.76L465.58 630.54C480.44 644.8 528.36 663.42 529.84 664L468.78 626.82C470.33 625.41 472.02 623.99 473.86 622.58L634.08 621.58C635.16 622.13 636.39 622.81 637.76 623.64L594 647.72L646.02 631.44Z" />
					<path id="&lt;Path&gt;" class="shp16" d="M565.74 674.26L584.44 662.13L580 674.26L576.74 710.79L565.74 674.26Z" />
					<path id="&lt;Path&gt;" class="shp17" d="M549.32 675.02L529.84 664L488.13 645.22L541.24 680.32L544.41 692.9L549.32 675.02Z" />
				</g>
				<path id="&lt;Path&gt;" class="shp18" d="M602.92 299.3C603 299.87 603.07 300.31 603.14 300.62C602.16 304.7 601.04 308.48 599.82 311.94C595.9 323.2 591.02 331.2 587.36 336.18C585.24 339.05 583.43 341.17 581.92 342.54C552.74 333.38 538.36 304.84 532.84 290.64C532.8 290.58 532.78 290.5 532.76 290.42C531.7 287.74 531 285.58 530.56 284.18C530.56 284.18 530.56 284.17 530.56 284.16C530.33 283.41 530.17 282.83 530.06 282.42C530.18 282.18 530.3 281.92 530.42 281.68L530.48 281.58C530.96 280.58 531.44 279.56 531.88 278.58C535.7 270.22 538.24 262.4 539.88 256.24C541.3 251 542.06 246.96 542.42 244.82C542.54 244.09 542.63 243.52 542.68 243.12L556.28 250.3L603.14 275.1C602.44 279.4 602.16 283.44 602.14 286.98C602.1 289.48 602.18 291.72 602.32 293.62C602.46 295.94 602.7 297.78 602.88 298.98L602.88 299C602.88 299.12 602.9 299.2 602.92 299.3Z" />
				<path id="&lt;Path&gt;" class="shp19" d="M589.92 345.68C587.22 348.36 584.04 350.76 580.24 352.76C580.16 352.82 580.08 352.86 580 352.9C579.93 352.86 579.84 352.81 579.72 352.74L579.7 352.72C578.68 352.1 575.2 349.96 570.52 346.44C558.28 337.22 537.84 318.58 532 293.46C531.98 293.42 531.98 293.4 531.96 293.36C531.28 290.38 530.8 287.34 530.56 284.18C530.56 284.18 530.56 284.17 530.56 284.16C530.5 283.34 530.44 282.52 530.42 281.68C533.13 288.04 536.83 294.65 541.52 301.52C549.8 313.64 562.22 326.86 577.06 326.94C589.9 327.02 596.48 318.24 599.82 310.14C601.24 306.7 602.08 303.4 602.52 300.94C602.53 300.93 602.54 300.91 602.54 300.9C602.68 300.18 602.78 299.54 602.88 299L602.88 298.98C602.92 298.7 602.96 298.46 602.98 298.24C603.06 297.64 603.11 297.17 603.14 296.82C606.42 317.3 602.01 333.59 589.92 345.68Z" />
				<path id="&lt;Path&gt;" class="shp20" d="M589.92 345.68C587.22 348.36 584.04 350.76 580.24 352.76L580 352.76L579.72 352.74L579.7 352.72C578.68 352.1 575.2 349.96 570.52 346.44C558.28 337.22 537.84 318.58 532 293.46C531.98 293.42 531.98 293.4 531.96 293.36C531.28 290.38 530.8 287.34 530.56 284.18C530.56 284.18 530.56 284.17 530.56 284.16C530.5 283.34 530.44 282.52 530.42 281.68C533.13 288.04 536.83 294.65 541.52 301.52C546.91 316.32 555.43 327.39 567.08 334.72C575.84 340.22 582.48 339.42 587.36 336.18C592.24 332.96 595.4 327.34 597.26 323.1C599.12 318.84 599.72 314.86 599.82 311.94C599.84 311.28 599.84 310.68 599.82 310.14C601.24 306.7 602.08 303.4 602.52 300.94C602.53 300.93 602.54 300.91 602.54 300.9C602.68 300.18 602.78 299.54 602.88 299L602.88 298.98C602.92 298.7 602.96 298.46 602.98 298.24C603.06 297.64 603.11 297.17 603.14 296.82C606.42 317.3 602.01 333.59 589.92 345.68Z" />
				<path id="&lt;Path&gt;" class="shp21" d="M702.24 527.06C702.09 527.13 701.99 527.18 701.92 527.22C700.28 527.42 695.18 526.3 688.5 520.52L688.48 520.5C688.48 520.48 688.46 520.46 688.42 520.44C688.4 520.42 688.38 520.38 688.34 520.36C682.74 515.46 676.02 507.28 669.32 493.88C655.92 467.1 652.08 449.22 651.46 446.1L651.38 445.62L643.56 458.02C638.26 473.96 628.22 539.92 628.4 542.76C628.58 545.6 637.3 559.44 637.12 561.14C637.12 561.15 637.11 561.17 637.1 561.18C636.86 562.9 632.94 566.68 631.82 570.8C631.06 573.54 636.38 582.18 640.12 588.64L640.12 588.66C642.06 592.02 643.56 594.78 643.56 595.82C643.56 597.83 640.4 603.77 634.08 613.62L634.08 621.58L633.94 621.72L633.5 622.12L633.14 622.42C629.54 625.26 614.28 634.56 566.6 637.12C528.93 639.13 497.55 634.08 472.46 621.96L475.3 614.18C473.54 612.67 472.59 611.54 472.46 610.78C472.34 610.02 473.03 608.75 474.54 606.98C470.75 604.97 468.86 602.69 468.86 600.16C468.86 596.38 480.24 584.64 479.86 574.58C479.48 564.54 470.76 555.64 469.62 549.96C468.86 546.17 473.79 539.61 484.4 530.26C475.31 501.46 469.87 467.73 468.1 429.08L465.46 426.04C454.59 450.8 444.23 469.24 434.38 481.36C432.62 483.52 430.76 485.66 428.84 487.72C424.72 492.18 420.34 496.36 416.12 500.02C405.88 508.94 396.58 514.8 394.22 514.34C390.42 513.58 375.26 483.64 375.96 452.94C376.28 438.34 385.08 422 394.22 408.9C395.2 407.5 396.18 406.12 397.18 404.78C403.66 395.96 409.88 389.04 412.86 385.88C413.63 385.05 414.24 384.42 414.68 383.98C413.29 379.51 412.13 375.34 411.18 371.46C411.16 371.32 411.12 371.18 411.08 371.04C411.08 370.98 411.06 370.9 411.04 370.84C411.03 370.77 411.01 370.73 411 370.7C410.16 367.12 409.64 364.02 410.12 363.26C411.38 361.24 418.72 358.96 419.98 357.46C421.24 355.94 426.54 330.42 430.58 327.64C434.46 324.98 441.28 323.04 464.02 314.1C465.14 313.66 466.28 313.22 467.48 312.74C484.48 306.01 501.32 298.55 518 290.38L527.6 278.58L531.88 278.58L530.48 281.58L530.42 281.68C531.1 284.72 531.88 287.64 532.76 290.42C532.78 290.5 532.8 290.58 532.84 290.64C541.64 318.4 557.36 336.75 580 345.7C595.73 334.09 603.45 319.06 603.14 300.62L603.14 296.82L607.56 298.14L610.58 305.34C613.99 310.65 622.46 316.27 635.98 322.22C639.48 323.76 643.24 325.7 647.12 327.92C665.68 338.46 686.32 354.76 687.9 358.22C688.06 358.58 688.24 359.14 688.44 359.94L688.44 359.96C690.62 368.52 695.1 400.58 699.26 412.02C701.86 419.16 705.96 423.1 708.98 425.14C709 425.16 709 425.16 709.02 425.16C710.51 426.19 711.81 426.86 712.9 427.18C713.22 428.94 713.52 430.68 713.8 432.4C722.5 487.24 705.96 524.46 702.24 527.06Z" />
				<path id="&lt;Path&gt;" class="shp22" d="M484.58 423.54L468.1 429.08L465.46 426.04C454.59 450.8 444.23 469.24 434.38 481.36C432.62 483.52 430.76 485.66 428.84 487.72C424.72 492.18 420.34 496.36 416.12 500.02L403.56 445.88L397.18 404.78C403.66 395.96 409.88 389.04 412.86 385.88C413.63 385.05 414.24 384.42 414.68 383.98C413.29 379.51 412.13 375.34 411.18 371.46C411.16 371.32 411.12 371.18 411.08 371.04C411.08 370.98 411.06 370.9 411.04 370.84C411.03 370.77 411.01 370.73 411 370.7C410.16 367.12 409.64 364.02 410.12 363.26C411.38 361.24 418.72 358.96 419.98 357.46C421.24 355.94 426.54 330.42 430.58 327.64C428.82 343.97 432.61 362.5 441.96 383.22L448.78 392.82L468.74 408.86C473.79 415.57 479.07 420.46 484.58 423.54Z" />
				<path id="&lt;Path&gt;" class="shp23" d="M436.9 467.86C434.54 485.37 420.31 500.86 394.22 514.34C385.5 514.34 375.76 499.18 366.92 480.48C358.08 461.78 357.54 408.06 357.08 404.74C356.6 401.42 351.68 394.78 351.38 391.94C351.19 390.05 353.85 387.14 359.34 383.22L359.28 383.08L359.22 382.94C358.36 381.1 353.52 370.72 353.86 368.82C354.11 367.43 357.33 365.23 363.5 362.2L364.08 372.42C378.45 369.7 388.07 362.77 392.94 351.64L394.22 346.52L397.82 348.92L397.82 370.9C398.31 373.18 398.94 374.32 399.7 374.32C400.84 374.32 409.24 370.12 411 370.7C412.78 371.28 414.52 383.04 416.88 384.54C419.22 386.06 425.48 390.42 426.42 392.5C426.84 393.44 426.88 396.82 426.92 400.8C426.98 405.68 427.02 411.44 427.74 414.68C429.08 420.54 440.44 441.58 436.9 467.86Z" />
				<path id="&lt;Path&gt;" class="shp24" d="M794.88 445.36C793.12 448.14 784.28 453.96 782 456.24C780.48 457.75 780.48 460.99 782 465.98C744.86 505.4 706.14 525.14 702.24 527.06C702.09 527.13 701.99 527.18 701.92 527.22C678.6 511.54 680.6 485.72 688.34 463.96C695.74 443.08 708.42 425.94 708.98 425.2L709 425.18C709 425.18 709.01 425.17 709.02 425.16C709.44 425 716.1 422.24 720.86 421.88C722.44 421.76 723.88 422.38 725.24 423.24C728.08 425 730.48 427.78 732.8 426.62C736.22 424.9 743.86 406.84 749.04 406.34C752.66 406 757.68 409.68 761.02 411.78C762.48 412.7 763.62 413.32 764.18 413.16C766.08 412.66 772.52 404.94 773.04 404.74C773.37 404.59 774.52 405.24 776.48 406.68L774.42 409.24C776.53 421.37 781.03 431.52 787.94 439.68L794.88 429.52C796.07 438.23 796.07 443.51 794.88 445.36Z" />
				<path id="&lt;Path&gt;" class="shp25" d="M603.02 298.52C602.98 298.78 602.94 299.04 602.92 299.3C602.82 299.84 602.7 300.36 602.54 300.9C602.54 300.91 602.53 300.93 602.52 300.94C600.14 309.76 590.52 318.78 578.38 314.44C569.54 311.28 556.71 291.88 539.88 256.24L542.42 244.82L602.32 293.62L602.98 298.24L603.02 298.52Z" />
				<g id="&lt;Group&gt;">
					<path id="&lt;Path&gt;" class="shp26" d="M403.56 288.74C401.12 275.26 400.44 263.56 401.54 253.62C402.63 243.68 402.49 233.07 401.11 221.79C398.7 220.78 396.61 220.78 394.84 221.79C392.19 223.31 386 238.72 388.78 251.09C390.63 259.35 390.84 273.37 389.41 293.16L385.24 293.16L376.15 280.65L371.73 279.39C354.76 295.39 346.4 308.15 346.65 317.66L349.98 330.36L381.33 329.28L401.79 305.92L403.56 288.74Z" />
					<path id="&lt;Path&gt;" class="shp27" d="M371.73 279.39C372.17 290 373.58 299.85 375.96 308.95C375.56 312.67 373.18 314.66 368.82 314.92L367.21 313.12C366.45 317.35 364.15 319.62 360.29 319.94L354.8 314.44L356.22 318.99C354.89 322.21 352.49 323.76 349.02 323.63C343.21 319.08 340.12 313.84 339.74 307.91L348.35 300.61L348.35 295.02L358.59 287.82L358.78 283.75C362.78 280.78 367.09 279.33 371.73 279.39Z" />
					<path id="&lt;Path&gt;" class="shp28" d="M401.9 249.34C400.88 251.94 399.64 253.75 398.19 254.76C396.74 255.77 393.91 256.66 389.7 257.43L389.41 293.16L385.24 293.16L376.15 280.65C379.22 285.41 380.85 289.58 381.04 293.16L377.44 294.93L374.32 284.22L372.83 291.93L374.31 301.51C377.9 298.42 382.95 296.81 389.46 296.68L390.93 299.35C379.16 309.09 371.92 316.84 369.2 322.59C375.01 315.2 384.55 307.43 397.81 299.28L399.71 293.41L402.22 279.39C400.63 265.92 400.53 255.9 401.9 249.34Z" />
					<path id="&lt;Path&gt;" class="shp29" d="M416.7 311.6C415.06 316.52 397.88 336.98 395.98 341.42C394.71 344.37 393.7 347.77 392.94 351.64C387.31 363.81 377.69 370.74 364.08 372.42L363.14 355.94C355.82 351.73 351.54 348.47 350.3 346.16L350.28 346.1L350.06 345.52C349.69 343.37 349.66 338.32 349.98 330.36L369.2 322.58C374.76 315.38 384.3 307.61 397.82 299.28L398.76 293.62C384.2 286.46 386.64 264.8 389.1 262.14C390.74 260.38 393.07 259.5 396.1 259.5C399.65 271.11 402.55 279.64 404.82 285.08C408.24 293.22 418.34 306.68 416.7 311.6Z" />
					<path id="&lt;Path&gt;" class="shp30" d="M358.78 283.75C360.21 297.01 363.02 306.8 367.21 313.12C361.88 306.51 359.01 298.07 358.59 287.82L358.78 283.75Z" />
					<path id="&lt;Path&gt;" class="shp30" d="M348.35 295.02C349.75 305.69 353.73 314 360.29 319.94C354.48 317.03 350.5 310.59 348.35 300.61L348.35 295.02Z" />
					<path id="&lt;Path&gt;" class="shp31" d="M398.64 337.18C384.2 351.2 372.36 357.46 363.14 355.94L364.08 372.42C379.24 371.1 389.28 362.46 394.21 346.51C395.98 341.93 397.46 338.82 398.64 337.18Z" />
				</g>
				<g id="&lt;Group&gt;">
					<path id="&lt;Path&gt;" class="shp32" d="M856.72 365.78C843.45 390.03 829.05 405.89 813.52 413.34L805.56 413.34L787.18 441.2C779.26 436.23 775.01 425.57 774.42 409.24C777.19 406.35 778.92 403.27 779.6 400C775.23 396.56 772.45 393.58 771.26 391.06C769.5 387.26 768.86 375.9 767.6 371.22C766.34 366.54 755.6 356.82 753.2 355.56C751.6 354.72 747.18 354.09 739.94 353.66C738.93 351.05 738.93 349.11 739.94 347.86C741.46 345.96 758.38 339.38 767.6 345.7C768.03 348.9 768.57 351.35 769.24 353.04C770.26 355.56 778.34 364.52 779.6 364.52C780.86 364.52 786.3 359.98 788.7 356.44C791 353.04 803.22 326.7 806.18 317.8C806.2 317.7 806.22 317.62 806.26 317.54C806.3 317.4 806.36 317.26 806.38 317.14C806.42 317.04 806.44 316.96 806.46 316.88C806.48 316.84 806.5 316.82 806.5 316.78C808.78 309.08 822.04 294.3 829.12 290.26C831.13 289.75 832.69 290.76 833.78 293.28C829.99 304.07 826.12 312.66 822.16 319.06C821.16 320.68 820.08 322.58 818.96 324.62C818.96 324.62 818.95 324.62 818.94 324.62C813.88 333.92 808.18 346.1 807.36 347.88L807.26 348.1L810.42 349.72L818.96 341.62L827.72 333.32L847.82 354.54L845.84 357.06L839.56 365.12L842.74 365.7L850.14 357.52L856.72 365.78Z" />
					<path id="&lt;Path&gt;" class="shp33" d="M852.06 373.51L845.71 382.86C822.44 364.91 808.27 355.18 803.22 353.66C798.17 352.14 794.71 351.89 792.86 352.9L785.04 362.88C794.64 371.39 799.86 381.37 800.7 392.82C797.5 378.34 790.47 368.91 779.6 364.52C780.86 364.52 786.3 359.98 788.7 356.44C791 353.04 803.22 326.7 806.18 317.8C805.78 319.32 805.26 322.28 806.5 324.62C808.22 327.8 818.34 324.8 818.94 324.62C818.95 324.62 818.96 324.62 818.96 324.62L807.36 347.88L807.26 348.1L810.42 349.72L818.96 341.62L814.68 351.56L845.84 357.06L839.56 365.12L842.74 365.7L852.06 373.51Z" />
					<path id="&lt;Path&gt;" class="shp34" d="M827.73 333.33C831.77 332.74 835.09 335.05 837.71 340.27L836.82 342.8C840.76 343.57 844.63 347.15 848.44 353.54C845.07 359.68 839.22 364.15 830.88 366.93C827.01 365.83 824.74 363.64 824.06 360.36L825.2 357.2L820.65 360.61C817.03 361.71 814.42 359.56 812.82 354.17L827.73 333.33Z" />
					<path id="&lt;Path&gt;" class="shp35" d="M858.55 363.26C859.39 359.39 857.75 356.19 853.62 353.66L841.62 366.93C841.86 369.76 843.72 371.49 847.18 372.11C852.65 370.25 856.44 367.31 858.55 363.26Z" />
					<path id="&lt;Path&gt;" class="shp36" d="M771.26 391.06C780.53 401.4 791.96 408.83 805.56 413.34L796.77 426.66L778.42 403.37L779.6 400C774.71 396.32 771.93 393.34 771.26 391.06Z" />
					<path id="&lt;Path&gt;" class="shp30" d="M836.82 342.8C832.95 349.2 829.07 354 825.2 357.2L824.06 360.36C831.58 355.28 836.73 349.81 839.49 343.95C838.6 343.31 837.71 342.93 836.82 342.8Z" />
				</g>
				<path id="&lt;Path&gt;" class="shp37" d="M794.88 445.36C793.12 448.14 784.28 453.96 782 456.24C780.48 457.75 780.48 460.99 782 465.98C744.86 505.4 706.14 525.14 702.24 527.06C702.09 527.13 701.99 527.18 701.92 527.22C698.88 527.6 684.1 523.44 669.32 493.88C655.92 467.1 652.08 449.22 651.46 446.1L651.38 445.62L654.64 441.2L659.48 386.64L662.88 397.62C671.47 387.26 679.81 374.13 687.9 358.22L688.44 359.94L688.44 359.96C690.62 368.52 695.1 400.58 699.26 412.02C701.86 419.16 705.96 423.1 708.98 425.14L709 425.18L708.98 425.2C697.12 436.02 691.24 451.58 688.34 463.96C686.57 471.53 685.62 478.22 685.5 484.02C687.69 473.75 692.23 462.45 699.14 450.1C702.9 443.36 708.38 437.34 713.8 432.4C717.88 428.68 721.94 425.56 725.24 423.24C728.08 425 730.48 427.78 732.8 426.62C717.2 450.04 717.58 496.4 732.24 487.56C742 481.67 748 472.47 750.23 459.96C746.77 437.1 747.8 411.31 750.58 406.41C753.96 406.53 763.62 413.32 764.18 413.16C763.59 431.09 767.51 446.05 775.94 458.02L784.28 445.12C776.19 431.48 772.44 418.02 773.04 404.74C773.37 404.59 774.52 405.24 776.48 406.68L774.42 409.24C776.53 421.37 781.03 431.52 787.94 439.68L794.88 429.52C796.07 438.23 796.07 443.51 794.88 445.36Z" />
				<path id="&lt;Path&gt;" class="shp38" d="M634.08 613.62L634.08 621.58L633.94 621.72L633.5 622.12L633.14 622.42C629.54 625.26 614.28 634.56 566.6 637.12C528.93 639.13 497.55 634.08 472.46 621.96L475.3 614.18C473.54 612.67 472.59 611.54 472.46 610.78C472.34 610.02 473.03 608.75 474.54 606.98C470.75 604.97 468.86 602.69 468.86 600.16C468.86 596.74 478.14 586.84 479.64 577.54C479.82 576.54 479.9 575.56 479.86 574.58C479.48 564.58 470.84 555.72 469.64 550.04C469.63 550 469.62 549.97 469.62 549.96C468.86 546.17 473.79 539.61 484.4 530.26C475.31 501.46 469.87 467.73 468.1 429.08L465.46 426.04C454.59 450.8 444.23 469.24 434.38 481.36C419.6 499.56 398 515.1 394.22 514.34C385.5 514.34 375.76 499.18 366.92 480.48C358.08 461.78 357.54 408.06 357.08 404.74C356.6 401.42 351.68 394.78 351.38 391.94C357.7 402.81 365.89 406.64 375.96 403.44C368.67 403.6 363.13 396.86 359.34 383.22L359.28 383.08L359.22 382.94L353.88 368.84C354.48 369.52 366.98 383.5 379.06 374.88C387.31 368.99 393.57 360.33 397.82 348.92L397.82 370.9C398.31 373.18 398.94 374.32 399.7 374.32C398.96 384.44 396.82 396.76 394.22 408.9C390.47 426.41 386.03 443.61 380.9 460.52C394.82 452.95 404.23 439.56 409.12 420.36C412.62 406.58 413.2 394.6 412.86 385.88C412.56 378.42 411.58 373.32 411.18 371.46C411.16 371.32 411.12 371.18 411.08 371.04C411.08 370.98 411.06 370.9 411.04 370.84C411.04 370.8 411.02 370.76 411.02 370.74L413.04 375.02L416.88 384.54C419.85 409.18 418.27 440.07 412.14 477.2C425.54 460.52 428.32 423.64 427.74 414.68C427.48 410.4 427.14 405.12 426.92 400.8C426.72 397.65 426.55 394.89 426.42 392.5L453.84 408.86L448.78 392.82L468.74 408.86C480.7 423.26 492.83 431.3 505.12 432.98C517.41 434.67 546.13 435.01 591.26 434C552.02 436.52 526.67 439.47 515.22 442.84C503.77 446.21 496.95 449.83 494.76 453.7C507.18 516.88 575.92 538.18 578.06 538.82C536.49 532.58 506.03 511.79 486.68 476.44C486 496.32 487.26 510.05 490.46 517.62C495.26 528.98 523.56 556.78 559.94 562.58C563 563.06 566.02 563.36 569 563.5C599.68 564.94 625.08 549.26 627.68 547.58C627.77 547.51 627.85 547.47 627.9 547.44C627.89 547.47 627.87 547.5 627.84 547.54C626.86 549.04 614.28 566.72 563.48 568.66C560.4 568.78 557.4 568.76 554.48 568.64C554.47 568.64 554.45 568.64 554.44 568.64C523.05 567.32 499.37 556.21 483.38 535.3C471.77 541.54 469.67 549.29 477.08 558.54C477.2 558.68 477.32 558.84 477.44 558.98C480.72 562.76 487.94 567.38 496.48 572.14C496.72 572.28 496.96 572.42 497.18 572.54C507.5 578.24 519.6 584.12 528.96 588.98C529.02 589 529.06 589.02 529.1 589.04C534.82 592.02 539.52 594.58 542.14 596.5C542.15 596.5 542.16 596.51 542.16 596.52C544.8 598.44 545.34 599.68 542.76 599.98C529.62 601.5 479.86 590.64 477.84 593.66C476.49 595.69 477.31 599.31 480.3 604.52C525.98 627.16 623.72 616 626.8 615.66C572.27 629.62 522.69 627.76 478.08 610.08L480.3 617.92C504.59 626.33 531.05 630.88 559.68 631.56C588.32 632.23 611.57 628.9 629.42 621.58L634.08 613.62Z" />
				<path id="&lt;Path&gt;" class="shp39" d="M600.61 433.75C622.3 434.93 640.31 437.41 654.65 441.2L643.56 458.02C632.44 448.24 618.13 440.15 600.61 433.75Z" />
				<path id="&lt;Path&gt;" class="shp40" d="M631.01 523.43C617.48 534.71 604.06 542.97 590.76 548.19C577.45 553.41 564.4 556.27 551.6 556.78C559.25 559.05 572.48 558.67 591.31 555.64C610.13 552.61 622.76 546 629.2 535.8L631.01 523.43Z" />
				<path id="&lt;Path&gt;" class="shp41" d="M640.12 588.64L640.12 588.66C602.56 598.36 554.88 584.44 555.28 582.74C555.68 581.04 568.34 583.5 597.7 577.62C626.16 571.92 636.48 561.8 637.1 561.18C636.86 562.9 632.94 566.68 631.82 570.8C631.06 573.54 636.38 582.18 640.12 588.64Z" />
				<path id="&lt;Path&gt;" class="shp42" d="M538.1 438.84C516.71 441.01 503.14 445.08 497.38 451.04C491.37 451.8 481.61 444.48 468.1 429.08L465.46 426.04C454.59 450.8 444.23 469.24 434.38 481.36C432.62 483.52 430.76 485.66 428.84 487.72L430.94 483C433.23 481.91 434.71 475.34 435.38 463.3C436.4 445.26 427.8 418.34 427.74 414.68C427.7 412.24 427.26 404.85 426.42 392.5L453.84 408.86L448.78 392.82L468.74 408.86C473.95 416.7 483.14 423.89 496.3 430.42C514.92 439.68 535.8 438.94 538.1 438.84Z" />
				<path id="&lt;Path&gt;" class="shp43" d="M465.46 426.04L484.57 423.54C489.67 426.92 497.32 430.69 507.55 434.85L494.76 453.7C498.14 471.62 504.69 485.63 514.39 495.72C488.63 481.42 473.94 468.25 470.32 456.21L465.46 426.04Z" />
				<path id="&lt;Path&gt;" class="shp44" d="M353.88 368.84L359.34 383.22C363.05 396.16 368.59 402.9 375.96 403.44C383.33 403.98 390.61 393.14 397.82 370.9L397.82 348.92C389.98 365.72 381.83 375.07 373.37 376.97C364.91 378.86 358.41 376.15 353.88 368.84Z" />
				<path id="&lt;Path&gt;" class="shp45" d="M419.98 357.46C426.55 370.59 433.87 379.18 441.96 383.22C432.35 359.89 428.55 341.36 430.58 327.64C427.05 329.84 423.51 339.78 419.98 357.46Z" />
				<path id="&lt;Path&gt;" class="shp46" d="M659.48 386.64L662.88 397.62L666.33 487.72C660.51 476.29 655.55 462.42 651.46 446.1L654.65 441.2C658.21 418.56 659.82 400.37 659.48 386.64Z" />
				<path id="&lt;Path&gt;" class="shp47" d="M764.18 413.16C762.9 442.67 768.53 458.7 781.07 461.25L782 465.98C765.78 465.38 759.84 447.77 764.18 413.16Z" />
				<path id="&lt;Path&gt;" class="shp48" d="M732.8 426.62C732.32 427.68 729.8 426.55 725.24 423.24C709.47 434.41 698.54 447.87 692.46 463.62C702.19 449.15 709.63 441.14 714.81 439.57C719.98 438 723.19 440.11 724.44 445.88C726.49 437.75 729.27 431.33 732.8 426.62Z" />
				<path id="&lt;Path&gt;" class="shp49" d="M351.38 391.94C357.45 403.13 366.17 406.96 377.54 403.45C370.72 408.05 363.91 408.48 357.08 404.74C352.84 397.47 350.94 393.2 351.38 391.94Z" />
				<path id="&lt;Path&gt;" class="shp50" d="M411 370.7C419.34 401.9 412.63 429.22 390.86 452.65C405 445.4 413.67 433.37 416.88 416.57C420.08 399.77 418.12 384.48 411 370.7Z" />
				<path id="&lt;Path&gt;" class="shp51" d="M635.28 333.3C634.34 347.38 630.5 359.47 623.75 369.58C617 379.68 606.93 388.15 593.54 394.97C610.34 388.78 622.59 381.33 630.29 372.61C638 363.89 639.66 350.79 635.28 333.3Z" />
				<path id="&lt;Path&gt;" class="shp52" d="M506.38 301.51C506.38 313.29 508.27 325.18 512.06 337.18C515.85 349.18 534.19 365.66 567.09 386.63C533.18 372.55 512.95 359.17 506.38 346.51C499.81 333.85 499.81 318.85 506.38 301.51Z" />
				<path id="&lt;Path&gt;" class="shp53" d="M505.8 385.63L505.8 414.4C549.95 414.04 596.77 415.5 646.28 418.78L647.97 392.89C604.94 387.79 557.55 385.37 505.8 385.63Z" />
				<g id="&lt;Group&gt;">
					<path id="&lt;Compound Path&gt;" class="shp54" d="M602.08 399.53L601.88 399.53L601.94 397.56C601.95 397.37 601.85 397.26 601.66 397.26L592.22 396.97C591.88 396.96 591.64 397.03 591.5 397.17C591.37 397.32 591.29 397.53 591.29 397.8L591.27 398.25C591.26 398.59 591.31 398.81 591.42 398.92C591.54 399.02 591.75 399.1 592.08 399.16L603.14 401.04C603.84 401.16 604.43 401.33 604.92 401.55C605.4 401.77 605.8 402.05 606.1 402.4C606.4 402.74 606.61 403.16 606.72 403.66C606.84 404.15 606.89 404.74 606.87 405.41L606.83 406.83C606.8 407.57 606.69 408.22 606.5 408.78C606.3 409.34 605.99 409.8 605.57 410.18C605.15 410.55 604.6 410.83 603.92 411C603.24 411.18 602.41 411.25 601.43 411.22L585.51 410.74L585.65 406.09L599.92 406.53C600.35 406.54 600.63 406.47 600.78 406.32C600.92 406.17 601 405.9 601.01 405.5L601.03 405.01C601.04 404.7 600.99 404.48 600.89 404.36C600.78 404.23 600.58 404.14 600.27 404.1L589.6 402.43C588.88 402.3 588.26 402.14 587.75 401.93C587.25 401.72 586.83 401.44 586.51 401.1C586.19 400.77 585.97 400.36 585.84 399.88C585.7 399.4 585.65 398.83 585.67 398.17L585.71 396.92C585.75 395.63 586.12 394.64 586.83 393.94C587.54 393.25 588.7 392.93 590.3 392.98L606.2 393.46C606.71 393.48 606.95 393.75 606.94 394.27L606.82 397.96L602.08 399.53Z" />
					<path id="&lt;Compound Path&gt;" class="shp54" d="M565.29 392.74C565.66 392.75 565.93 392.82 566.08 392.94C566.23 393.06 566.37 393.24 566.49 393.49L572.89 406.55C572.99 406.74 573.15 406.85 573.34 406.85L573.61 406.86C573.88 406.87 574.01 406.74 574.02 406.48L574.43 393.02L579.02 393.16L578.5 410.33C578.49 410.81 578.25 411.04 577.79 411.02L570.52 410.8C570.17 410.79 569.92 410.73 569.75 410.63C569.58 410.53 569.43 410.34 569.29 410.05L562.65 397.01C562.56 396.81 562.4 396.71 562.19 396.7L561.95 396.7C561.68 396.69 561.55 396.82 561.54 397.08L561.13 410.52L556.54 410.38L557.06 393.23C557.07 392.74 557.31 392.5 557.77 392.51L565.29 392.74Z" />
				</g>
				<path id="&lt;Path&gt;" class="shp55" d="M610.58 305.34C609.02 323.94 603.36 336.9 597.32 345.64C591.77 353.64 586 359.01 580 361.74C571 357.82 563.2 352.94 556.48 347.56C527.96 324.76 518.76 293.16 518.06 290.56C530.1 319.64 547.78 337.26 561.18 347.18C568.38 352.53 574.65 356.21 580 358.22L580 348.92C577.86 348.12 575.78 347.2 573.8 346.2C550.2 334.3 537.8 309.5 532 293.46C531.98 293.42 531.98 293.4 531.96 293.36C529.87 287.57 528.41 282.65 527.6 278.58L531.88 278.58L530.48 281.58L530.42 281.68C531.1 284.72 531.88 287.64 532.76 290.42C532.78 290.5 532.8 290.58 532.84 290.64C541.64 318.4 557.36 336.75 580 345.7C595.73 334.09 603.45 319.06 603.14 300.62L603.14 296.82L607.56 298.14L610.58 305.34Z" />
				<path id="&lt;Path&gt;" class="shp56" d="M750.58 406.41C746.31 420.38 746.19 438.23 750.23 459.96C752.25 432.42 754.02 417.45 755.54 415.05C757.05 412.65 759.93 412.02 764.18 413.16C757.5 409.47 752.97 407.22 750.58 406.41Z" />
				<path id="&lt;Path&gt;" class="shp57" d="M688.34 520.36C682.74 515.46 676.02 507.28 669.32 493.88C655.92 467.1 652.08 449.22 651.46 446.1L654.64 441.2L658.9 400L662.88 397.62C672.36 387.15 680.7 374.02 687.9 358.22C688.06 358.58 688.24 359.14 688.44 359.94L688.44 359.96C690.62 368.52 695.1 400.58 699.26 412.02C701.86 419.16 705.96 423.1 708.98 425.14C692.57 449.49 683.96 470.35 683.16 487.72C682.1 511.44 687.38 519.16 688.34 520.36Z" />
				<path id="&lt;Path&gt;" class="shp58" d="M542.16 596.52C512.57 591.67 491.74 585.35 479.66 577.56C479.65 577.56 479.64 577.55 479.64 577.54C479.82 576.54 479.9 575.56 479.86 574.58C479.48 564.58 470.84 555.72 469.64 550.04C469.84 550.58 471.14 553.58 477.44 558.98C481.42 562.4 487.44 566.8 496.48 572.14C496.72 572.28 496.96 572.42 497.18 572.54C509.98 580.1 521 585.22 528.96 588.98C529.02 589 529.06 589.02 529.1 589.04C536.26 592.4 540.9 594.62 542.14 596.5C542.15 596.5 542.16 596.51 542.16 596.52Z" />
				<path id="&lt;Path&gt;" class="shp59" d="M637.1 561.18C636.86 562.9 632.94 566.68 631.82 570.8C620.97 582.29 595.45 586.27 555.28 582.74C555.68 581.04 568.34 583.5 597.7 577.62C626.16 571.92 636.48 561.8 637.1 561.18Z" />
				<path id="&lt;Path&gt;" class="shp60" d="M647.12 327.92L608.6 340.4L597.32 345.64L597.26 345.66L589.92 345.68L580 345.7L573.8 346.2L570.52 346.44L561.18 347.18L556.48 347.56L510.28 330.84L502.02 327.86L464.02 314.1C465.14 313.66 466.28 313.22 467.48 312.74C484.48 306.01 501.32 298.55 518 290.38L527.6 278.58L531.88 278.58C535.7 270.22 538.24 262.4 539.88 256.24L542.42 244.82C542.54 244.09 542.63 243.52 542.68 243.12L556.28 250.3L602.14 286.98C602.1 289.48 602.18 291.72 602.32 293.62L602.98 298.24C603.06 297.64 603.11 297.17 603.14 296.82L607.56 298.14L610.58 305.34C613.99 310.65 622.46 316.27 635.98 322.22C639.48 323.76 643.24 325.7 647.12 327.92Z" />
				<g id="&lt;Group&gt;">
					<path id="&lt;Path&gt;" class="shp61" d="M617.78 292.78C605.81 295.47 593.21 293.62 580 287.22C560.18 277.62 543.52 249.32 542.5 242.26C541.5 235.18 550.08 216.74 550.08 202.34C550.08 187.94 543.02 163.18 554.88 149.78C566.76 136.4 621.32 134.38 639.02 151.56C642.67 160.73 644.5 167.91 644.5 173.1C644.5 174.98 644.16 177.74 643.66 180.92C643.5 182.1 643.28 183.36 643.08 184.66C641.5 194.08 639.32 205.58 640.34 210.62C640.7 212.38 641.26 214 641.92 215.54L641.92 215.56C644.1 220.6 647.34 224.62 647.92 228.98C648.68 234.68 641.04 275.1 617.78 292.78Z" />
					<path id="&lt;Path&gt;" class="shp62" d="M549.93 198.27C546.67 190.08 540.93 185.92 532.72 185.79C527.92 187.68 525.14 190.46 524.38 194.13C526.15 207.39 528.04 217.12 530.06 223.31C532.08 229.49 536.8 232.14 544.21 231.25C550.66 221.38 552.57 210.39 549.93 198.27Z" />
					<path id="&lt;Path&gt;" class="shp63" d="M597.27 238.78C600 238.57 601.96 238.91 603.14 239.79C604.91 241.12 611.35 247.37 619.49 249.07C627.64 250.78 633.11 243.84 634.84 243.49C636 243.25 637.21 243.95 638.49 245.58C637.99 243.69 636.32 242.32 633.49 241.46C632.35 245.82 627.84 247.25 619.97 245.76C612.1 244.27 606.49 241.77 603.14 238.27L602.54 237.2C600.32 237.66 598.56 238.19 597.27 238.78Z" />
					<path id="&lt;Path&gt;" class="shp64" d="M579.84 177.6L580 176.33C587.85 162.55 599.55 155.47 615.09 155.09C630.62 154.72 640.15 159.39 643.66 169.13L647.97 162.58L638.14 142.59L569.66 141.45L552.99 154.91L550.88 187.84L558.29 231.31L576.33 240.93L581.42 236.41C580.17 226.71 575.93 217.42 568.72 208.55L576.61 203.07C590.13 209.61 600.79 211.91 608.6 209.95C614.47 192.8 617.24 177.88 616.91 165.18C596.88 168.14 584.53 172.28 579.84 177.6Z" />
					<path id="&lt;Path&gt;" class="shp65" d="M578.8 179.13C579.55 174.16 584.12 170.69 592.5 168.7C601.84 166.49 610.29 164.45 617.88 162.58C616.22 168.02 613.84 171.76 610.73 173.81C600.86 173.45 593.42 173.84 588.42 174.97C583.42 176.11 580.22 177.49 578.8 179.13Z" />
					<path id="&lt;Path&gt;" class="shp65" d="M643.66 169.13C638.92 172.78 634.94 178.97 631.72 187.68C634.81 183.64 637.78 181.65 640.62 181.72C642.57 181.76 643.39 182.74 643.07 184.67C645.01 179.46 645.21 174.28 643.66 169.13Z" />
					<path id="&lt;Path&gt;" class="shp66" d="M583.49 200.19C584 189.71 589.37 183.14 599.6 180.48C603.26 185.22 605.28 190.27 605.66 195.64C600.23 194.63 592.84 196.15 583.49 200.19Z" />
					<path id="&lt;Path&gt;" class="shp67" d="M627.45 206.44C628.28 198.1 631.09 192.38 635.88 189.29C639.15 191.74 640.62 196.46 640.28 203.45C637.41 202.41 633.14 203.41 627.45 206.44Z" />
					<path id="&lt;Path&gt;" class="shp68" d="M583.49 200.19C586.82 204.27 593.14 206.72 602.44 207.52C604.22 204.82 605.02 200.83 604.85 195.54C596.3 194.73 589.18 196.27 583.49 200.19Z" />
					<path id="&lt;Path&gt;" class="shp68" d="M627.45 206.44L627.45 208.27C628.88 211.26 632.17 213.01 637.31 213.52C638.96 210.94 639.86 207.55 640 203.37C636.73 202.56 632.55 203.58 627.45 206.44Z" />
					<path id="&lt;Path&gt;" class="shp69" d="M598.42 195.22C596.06 198.09 594.98 201.79 595.19 206.31C598.29 207.04 600.71 207.44 602.44 207.52C604.48 204.68 605.28 200.69 604.85 195.54C602.14 194.96 600 194.85 598.42 195.22Z" />
					<path id="&lt;Path&gt;" class="shp69" d="M634.77 203.59C633.43 205.02 632.63 207.93 632.38 212.32C634.21 213.12 635.85 213.52 637.31 213.52C639.18 210.86 640.07 207.48 640 203.37C638.69 202.87 636.95 202.95 634.77 203.59Z" />
					<path id="&lt;Path&gt;" class="shp65" d="M597.27 206.79C596.42 201.12 597.62 197.21 600.86 195.04L604.85 195.54C605.73 200.03 604.93 204.02 602.44 207.52C599.8 207.22 598.08 206.97 597.27 206.79Z" />
					<path id="&lt;Path&gt;" class="shp65" d="M636.52 203.21C635.32 205.73 634.44 208.95 633.88 212.87C634.81 213.25 635.95 213.46 637.31 213.52C639.12 211.29 640.02 207.91 640 203.37C638.61 203 637.46 202.95 636.52 203.21Z" />
					<path id="&lt;Path&gt;" class="shp70" d="M583.49 200.19C589.68 196.59 598.05 195.82 608.6 197.87L605.66 195.64C598.15 193.31 590.76 194.82 583.49 200.19Z" />
					<path id="&lt;Path&gt;" class="shp70" d="M627.45 206.44C632.42 203.81 637.79 203.19 643.58 204.58L640 201.93C636.12 201.34 631.94 202.84 627.45 206.44Z" />
					<path id="&lt;Path&gt;" class="shp9" d="M593.54 200.19C595.22 199.82 596.82 200.4 598.34 201.93C596.26 202.54 594.66 201.96 593.54 200.19Z" />
					<path id="&lt;Path&gt;" class="shp9" d="M630.86 207.52C633.5 207 635.28 207.35 636.19 208.55C634.78 209.52 633 209.18 630.86 207.52Z" />
					<path id="&lt;Path&gt;" class="shp71" d="M584.43 201.11C589.24 205.86 595.49 208.81 603.2 209.95L603.5 205.74L602.44 207.52C595.03 207.08 589.03 204.94 584.43 201.11Z" />
					<path id="&lt;Path&gt;" class="shp71" d="M627.45 208.27C628.31 211.35 631.87 213.58 638.14 214.97L637.83 212.71L637.31 213.52C632.85 212.95 629.57 211.2 627.45 208.27Z" />
					<path id="&lt;Path&gt;" class="shp72" d="M608.6 226.72C610.94 226.21 614.25 226.21 618.55 226.72C624.99 227.47 632.23 229.24 636.19 226.72C632.69 230.22 629.41 232.25 626.38 232.78C623.34 233.31 619.51 232.25 614.88 229.58L611.85 229.63C610.29 228.87 609.21 227.89 608.6 226.72Z" />
					<path id="&lt;Path&gt;" class="shp73" d="M612.3 229.62C613.35 228.95 614.32 228.69 615.2 228.86C616.08 229.03 616.98 229.76 617.88 231.05C616.01 230.06 614.15 229.58 612.3 229.62Z" />
					<path id="&lt;Path&gt;" class="shp74" d="M636.19 226.72C637.87 225.07 629.16 209.55 624.99 208.97C622.21 208.59 619.52 214.39 616.91 226.38C620.77 226.92 624.58 227.44 628.33 227.94C632.07 228.45 634.7 228.04 636.19 226.72Z" />
					<path id="&lt;Path&gt;" class="shp75" d="M642.42 177.84C640.85 177.64 637.28 180.92 631.72 187.68C628.19 198.63 626.77 205.72 627.46 208.96C628.15 212.21 632.79 214.7 641.38 216.42L641.92 215.56L641.92 215.54C641.26 214 640.7 212.38 640.34 210.62C639.32 205.58 641.5 194.08 643.08 184.66C643.43 183.37 643.62 182.12 643.66 180.92C643.72 179.4 643.5 177.96 642.42 177.84Z" />
					<path id="&lt;Compound Path&gt;" fill-rule="evenodd" class="shp76" d="M646.54 240.1C646.26 241.98 639.84 282.42 621.1 294.64C621.09 294.65 621.08 294.66 621.08 294.66C609.79 297.45 595.55 295.64 578.38 289.24C559.07 278.19 547.09 263.38 542.42 244.82C541.34 240.45 541.94 235.92 544.22 231.24C547.46 229.85 549.82 224.91 551.3 216.42C552.97 206.94 551.29 198.96 546.26 192.48C546.95 187.35 546.55 181.87 545.04 176.06C542.76 167.34 538.46 158.88 540.36 152.7C542.26 146.5 558.1 142.58 565.3 136.72C566.56 135.68 567.6 134.7 568.48 133.74C568.49 133.73 568.51 133.71 568.54 133.68C568.56 133.66 568.62 133.62 568.66 133.56C569.6 132.56 570.38 131.58 571.14 130.62L571.92 129.68L572.66 128.8C574.8 126.32 577.4 123.94 582.92 121.36C593.88 116.28 601.62 115.5 609.54 108.4C609.58 108.36 609.61 108.33 609.64 108.3C609.89 113.1 609.13 117.58 607.36 121.74C623.53 118.09 633.51 116.26 637.3 116.26C641.09 116.26 643.61 122.32 644.88 134.44L644.9 134.46C645.32 135.04 652.1 144.14 654.54 150.38C655.43 152.63 651.97 161.72 644.14 177.64C645.02 170.07 643.06 162.81 638.26 155.86L635.6 158.32C635.53 158.16 635.43 157.95 635.28 157.68C634.18 155.64 630.28 149.26 623.48 147.52C623.48 148.4 616.34 148.08 602.06 146.56C580.66 144.3 571.94 143.16 566.82 148.08C561.7 153.02 563.6 164.56 568.34 168.54C559.62 177.77 555.39 188.89 555.64 201.9C556 220.68 570.18 234.62 576.2 236.96C576.42 237.06 576.66 237.14 576.86 237.2C582.42 238.72 585.22 228.74 617.92 233.04C641.02 236.06 639.38 238.96 642.04 244.52C642.74 246 646.22 240.6 646.54 240.1ZM640.02 252.36C640.18 243.76 634.08 240.98 632.94 241.5C631.82 242 628.4 243.74 618.92 243.12C612.61 242.71 607.35 240.73 603.14 237.2C594.99 238.04 589.76 241.75 587.44 248.32C583.94 258.16 600.1 264.74 603.14 264.48C605.15 264.32 608.69 261.37 613.74 255.64C619.22 255.23 622.47 255.52 623.48 256.52C624.98 258.04 625.94 269.54 630.48 270.3C635.04 271.06 639.92 258.34 640.02 252.36Z" />
					<path id="&lt;Path&gt;" class="shp77" d="M629.3 212.43C634.75 219.19 637.21 223.84 636.69 226.38C636.12 229.16 632.68 231.29 626.38 232.78C631.43 231.04 634.48 228.9 635.52 226.38C634.22 221.26 632.15 216.61 629.3 212.43Z" />
					<path id="&lt;Path&gt;" class="shp78" d="M644.14 177.64C645.02 170.07 643.06 162.81 638.26 155.86C642.11 148.98 644.32 141.84 644.88 134.44L644.9 134.46C646.21 137.67 647.23 142.41 647.98 148.66L654.54 150.38C655.43 152.63 651.97 161.72 644.14 177.64Z" />
					<path id="&lt;Path&gt;" class="shp79" d="M635.28 157.68C634.18 155.64 630.28 149.26 623.48 147.52C623.48 148.4 616.34 148.08 602.06 146.56C580.66 144.3 571.94 143.16 566.82 148.08C561.7 153.02 563.6 164.56 568.34 168.54C559.62 177.77 555.39 188.89 555.64 201.9C556 220.68 570.18 234.62 576.2 236.96L575.92 239.04C576.63 267.71 580.47 283.18 587.44 285.46C597.88 288.86 619.56 287.1 621.58 289.12C623.5 291.04 621.3 294.34 621.1 294.64C621.09 294.65 621.08 294.66 621.08 294.66C609.79 297.45 595.55 295.64 578.38 289.24C559.07 278.19 547.09 263.38 542.42 244.82C541.34 240.45 541.94 235.92 544.22 231.24C547.46 229.85 549.82 224.91 551.3 216.42C552.97 206.94 551.29 198.96 546.26 192.48C546.95 187.35 546.55 181.87 545.04 176.06C542.76 167.34 538.46 158.88 540.36 152.7C548.44 153.97 555.13 152.49 560.44 148.28C561.85 146.32 565.69 144.83 571.94 143.82C578.19 142.81 593.89 143.57 619.02 146.1C616.5 144.01 612.59 142.27 607.28 140.88C599.76 138.9 574.08 141.2 571.32 141.42C574.26 140.9 603.38 135.9 606.7 136.9C609.05 137.59 614.42 139.87 622.82 143.72C622.06 139.87 617.92 133.3 610.4 124.02C599.79 124.21 591.01 125.03 584.06 126.48C574.76 128.42 569.66 132.68 568.66 133.56L571.14 130.62L571.92 129.68L572.66 128.8L576.3 128.18L594.58 120.8C600.72 117.52 608.58 109.4 609.54 108.4C609.58 108.36 609.61 108.33 609.64 108.3C609.89 113.1 609.13 117.58 607.36 121.74C617.65 120.47 624.54 120.16 628.02 120.8C632.7 127.43 635.12 139.72 635.28 157.68Z" />
					<path id="&lt;Path&gt;" class="shp80" d="M578.38 289.24C584.69 287.74 592.61 287.19 602.13 287.57C616.41 288.15 624.62 288.2 621.08 294.66C609.12 297.36 594.89 295.55 578.38 289.24Z" />
					<path id="&lt;Path&gt;" class="shp81" d="M628.02 120.8C633.81 118.54 637.85 117.6 640.13 117.97C639.23 116.76 638.3 116.03 637.35 115.78C636.41 115.53 626.41 117.51 607.36 121.74C619.24 120.36 626.12 120.04 628.02 120.8Z" />
					<path id="&lt;Path&gt;" class="shp82" d="M610.4 124.02C609.95 130.32 608.71 134.62 606.7 136.9L571.32 141.42L560.93 139.59C563.61 138.45 566.42 136.16 569.37 132.72C573.79 127.57 596.85 122.5 610.4 124.02Z" />
					<path id="&lt;Path&gt;" class="shp83" d="M644.88 134.44C646.8 140.64 647.83 145.38 647.98 148.66L654.54 150.38C653.21 145.69 649.99 140.38 644.88 134.44Z" />
					<path id="&lt;Path&gt;" class="shp84" d="M548.47 214.97C546.82 207.01 543.95 201.06 539.89 197.13C535.82 193.19 531.47 191.85 526.84 193.12C528.11 207.87 529.4 217.05 530.73 220.65C532.05 224.25 533.73 226.53 535.75 227.47C532.91 224.98 531.29 221.3 530.92 216.42C530.35 209.09 530.16 198.77 531.77 197.54C532.84 196.72 535.55 197.91 539.89 201.11C538.52 202.79 537.42 205.8 536.6 210.15C535.37 216.67 539.92 221.41 541.62 221.32C543.33 221.22 541.53 213.77 541.81 211.62C542.09 209.47 545.88 209.95 548.47 214.97Z" />
					<path id="&lt;Path&gt;" class="shp85" d="M542.39 200.13C537.95 203.05 535.97 207.5 536.45 213.48C537.17 222.45 542.3 222.06 542.31 220.18C542.33 218.29 541.34 213.44 541.86 210.7C542.21 208.87 543.85 208.37 546.8 209.2C544.86 204.45 543.39 201.43 542.39 200.13Z" />
					<path id="&lt;Path&gt;" class="shp86" d="M646.54 240.1C641.02 265.26 632.54 283.45 621.08 294.66C634.15 289.53 642.63 271.34 646.54 240.1Z" />
					<path id="&lt;Path&gt;" class="shp86" d="M637.35 115.78C640.26 118.04 641.99 123.1 642.55 130.97C643.1 138.83 641.67 147.13 638.26 155.86C642.63 149.33 645.03 142.48 645.45 135.33C646.08 124.59 640.81 117.14 637.35 115.78Z" />
				</g>
				<path id="&lt;Path&gt;" class="shp87" d="M584.49 140.48C591.22 142.78 598.28 144.25 605.66 144.9C613.05 145.55 617.5 145.95 619.02 146.1C616.05 143.22 611.41 141.35 605.08 140.48C598.76 139.61 591.9 139.61 584.49 140.48Z" />
				<path id="&lt;Path&gt;" class="shp88" d="M633.29 240.93C636.51 240.93 638.76 242.95 640.02 246.99C641.03 250.21 641.68 253.21 641.96 255.99L643.67 249.34C642.18 243.73 640.66 240.29 639.12 239.03C637.44 237.67 634.57 236.28 633.19 236.62L633.29 240.93Z" />
				<path id="&lt;Path&gt;" class="shp89" d="M620.26 234.86L621.08 242.06C625.01 242.38 628.27 242 630.86 240.93L631.56 236.57C626.56 235.31 622.79 234.74 620.26 234.86Z" />
				<path id="&lt;Path&gt;" class="shp86" d="M647.12 327.92C670.09 344.7 683.06 355.97 686.04 361.74C690.52 370.39 692.33 397.55 698.37 409.29C695.62 396.48 693.27 385.05 691.34 375.01C688.44 359.94 689.14 359.73 687.53 356.03C685.92 352.34 660.18 334.48 647.12 327.92Z" />
				<path id="&lt;Path&gt;" class="shp86" d="M640.95 468.01C629.88 515.4 624.59 540.69 625.09 543.89C625.85 548.7 636.6 558.49 637.1 561.18C631.62 568.52 629.01 573 629.26 574.62C629.64 577.05 643.66 592.47 643.28 597.23C643.21 598.15 640.14 603.62 634.08 613.62C640.93 603.79 644.53 598.09 644.86 596.52C645.37 594.17 632.27 574.47 631.89 572.47C630.89 567.28 638.42 563.47 638.67 560.06C638.93 556.65 628.48 548.32 628.4 542.76C628.34 539.05 632.53 514.14 640.95 468.01Z" />
				<path id="&lt;Path&gt;" class="shp86" d="M644.32 637.46C668.25 691.64 684.3 745.82 692.46 800C691.1 747.13 675.05 692.95 644.32 637.46Z" />
				<path id="&lt;Path&gt;" class="shp74" d="M416.7 311.6C410.51 310.28 406.13 306.91 403.56 301.51C400.99 296.11 400.54 289.5 402.22 281.68C407.07 290.98 410.7 297.22 413.11 300.39C416.74 305.16 417.71 310.59 416.7 311.6Z" />
			</g>
			<g id="&lt;Group&gt;">
				<path id="&lt;Path&gt;" class="shp90" d="M703.32 269.23L709.76 452.82C710.01 460.1 715.99 465.87 723.28 465.87L1039.54 465.87C1046.89 465.87 1052.89 460.01 1053.06 452.67L1057.49 266.93C1057.67 259.3 1051.51 253.03 1043.88 253.08L716.75 255.23C709.12 255.28 703.05 261.61 703.32 269.23Z" />
				<g id="&lt;Group&gt;">
					<path id="&lt;Compound Path&gt;" fill-rule="evenodd" class="shp91" d="M1039.54 466.38L723.28 466.38C715.68 466.38 709.52 460.43 709.26 452.84L702.82 269.25C702.68 265.43 704.07 261.8 706.71 259.05C709.36 256.29 712.92 254.75 716.74 254.73L1043.87 252.58C1047.67 252.6 1051.29 254.05 1053.97 256.78C1056.65 259.51 1058.08 263.12 1057.99 266.94L1053.56 452.68C1053.38 460.36 1047.22 466.38 1039.54 466.38ZM1043.97 253.58C1043.94 253.58 1043.91 253.58 1043.88 253.58L716.75 255.73C713.2 255.75 709.89 257.18 707.43 259.74C704.98 262.3 703.69 265.66 703.82 269.21L710.26 452.8C710.5 459.85 716.22 465.38 723.28 465.38L1039.54 465.38C1046.55 465.38 1052.4 459.67 1052.56 452.66L1056.99 266.92C1057.07 263.37 1055.75 260.01 1053.26 257.48C1050.79 254.96 1047.49 253.58 1043.97 253.58Z" />
				</g>
				<path id="&lt;Path&gt;" class="shp92" d="M703.79 278.58L1057.12 278.58L1057.68 268.9C1058.18 260.34 1051.34 253.14 1042.77 253.21L715.76 255.79C708.93 255.84 703.47 261.46 703.59 268.29L703.79 278.58Z" />
				<path id="&lt;Path&gt;" class="shp93" d="M721.55 293.39L721.55 399.64L829.7 399.64L829.7 292.83L721.55 293.39Z" />
				<path id="&lt;Path&gt;" class="shp94" d="M981.27 347.57L934.22 347.57L934.22 300.52L981.27 300.52L981.27 347.57Z" />
				<path id="&lt;Path&gt;" class="shp95" d="M1036.78 347.57L989.73 347.57L989.73 300.52L1036.78 300.52L1036.78 347.57Z" />
				<path id="&lt;Path&gt;" class="shp96" d="M924.83 347.57L877.79 347.57L877.79 300.52L924.83 300.52L924.83 347.57Z" />
				<path id="&lt;Path&gt;" class="shp97" d="M1036.78 386.27L916.47 386.27L916.47 375L1036.78 375L1036.78 386.27Z" />
				<path id="&lt;Path&gt;" class="shp97" d="M1036.78 395.63L886.38 395.63L886.38 392.15L1036.78 392.15L1036.78 395.63Z" />
				<path id="&lt;Path&gt;" class="shp97" d="M916.57 357.05L887.8 357.05L887.8 353.57L916.57 353.57L916.57 357.05Z" />
				<path id="&lt;Path&gt;" class="shp97" d="M972.13 357.05L943.36 357.05L943.36 353.57L972.13 353.57L972.13 357.05Z" />
				<path id="&lt;Path&gt;" class="shp97" d="M1027.64 357.05L998.87 357.05L998.87 353.57L1027.64 353.57L1027.64 357.05Z" />
				<path id="&lt;Path&gt;" class="shp97" d="M926.17 401.3L877.79 401.3L877.79 397.81L926.17 397.81L926.17 401.3Z" />
				<path id="&lt;Path&gt;" class="shp97" d="M1036.78 406.9L886.38 406.9L886.38 403.42L1036.78 403.42L1036.78 406.9Z" />
				<path id="&lt;Path&gt;" class="shp97" d="M1036.78 412.51L877.79 412.51L877.79 409.02L1036.78 409.02L1036.78 412.51Z" />
				<path id="&lt;Path&gt;" class="shp97" d="M1036.78 418.11L877.79 418.11L877.79 414.62L1036.78 414.62L1036.78 418.11Z" />
				<path id="&lt;Path&gt;" class="shp97" d="M1036.78 440.75L886.38 440.75L886.38 437.27L1036.78 437.27L1036.78 440.75Z" />
				<path id="&lt;Path&gt;" class="shp97" d="M1036.78 446.36L877.79 446.36L877.79 442.87L1036.78 442.87L1036.78 446.36Z" />
				<path id="&lt;Path&gt;" class="shp97" d="M1036.78 451.96L877.79 451.96L877.79 448.47L1036.78 448.47L1036.78 451.96Z" />
				<path id="&lt;Path&gt;" class="shp97" d="M1030.38 423.71L877.79 423.71L877.79 420.22L1030.38 420.22L1030.38 423.71Z" />
				<path id="&lt;Path&gt;" class="shp97" d="M1036.78 429.31L886.38 429.31L886.38 425.82L1036.78 425.82L1036.78 429.31Z" />
				<path id="&lt;Path&gt;" class="shp97" d="M1006.6 434.91L877.79 434.91L877.79 431.42L1006.6 431.42L1006.6 434.91Z" />
				<g id="&lt;Group&gt;" style="mix-blend-mode: soft-light">
					<path id="&lt;Compound Path&gt;" fill-rule="evenodd" class="shp98" d="M751.85 378.33C734.89 378.33 721.09 364.53 721.09 347.57C721.09 330.6 734.89 316.8 751.85 316.8C768.82 316.8 782.62 330.6 782.62 347.57C782.62 364.53 768.82 378.33 751.85 378.33ZM751.85 318.8C735.99 318.8 723.09 331.7 723.09 347.57C723.09 363.43 735.99 376.33 751.85 376.33C767.71 376.33 780.62 363.43 780.62 347.57C780.62 331.7 767.71 318.8 751.85 318.8Z" />
				</g>
				<path id="&lt;Path&gt;" class="shp9" d="M768.57 347.57C768.57 356.8 761.09 364.29 751.85 364.29C742.62 364.29 735.13 356.8 735.13 347.57C735.13 338.33 742.62 330.85 751.85 330.85C761.09 330.85 768.57 338.33 768.57 347.57Z" />
				<g id="&lt;Group&gt;" style="mix-blend-mode: soft-light">
					<path id="&lt;Compound Path&gt;" fill-rule="evenodd" class="shp98" d="M829.71 323.6C812.74 323.6 798.94 309.8 798.94 292.83C798.94 275.87 812.74 262.07 829.71 262.07C846.67 262.07 860.47 275.87 860.47 292.83C860.47 309.8 846.67 323.6 829.71 323.6ZM829.71 264.07C813.84 264.07 800.94 276.97 800.94 292.83C800.94 308.7 813.84 321.6 829.71 321.6C845.57 321.6 858.47 308.7 858.47 292.83C858.47 276.97 845.57 264.07 829.71 264.07Z" />
				</g>
				<path id="&lt;Path&gt;" class="shp9" d="M845.44 292.83C845.44 301.52 838.39 308.57 829.7 308.57C821.01 308.57 813.97 301.52 813.97 292.83C813.97 284.15 821.01 277.1 829.7 277.1C838.39 277.1 845.44 284.15 845.44 292.83Z" />
				<g id="&lt;Group&gt;" style="mix-blend-mode: soft-light">
					<path id="&lt;Path&gt;" class="shp9" d="M716.17 264.16L718.42 260.75L730.57 271.41L728.71 274.01L716.17 264.16Z" />
					<path id="&lt;Path&gt;" class="shp9" d="M730.88 264.16L728.64 260.75L716.48 271.41L718.34 274.01L730.88 264.16Z" />
				</g>
				<path id="&lt;Path&gt;" class="shp9" d="M1048.57 268.53L939.68 268.53L939.68 263.07L1048.57 263.07L1048.57 268.53Z" />
			</g>
			<g id="&lt;Group&gt;">
				<path id="&lt;Path&gt;" class="shp99" d="M366.7 184.25L366.7 231.49L423.21 231.97L423.97 182.73L366.7 184.25Z" />
				<path id="&lt;Path&gt;" class="shp100" d="M423.97 182.73L427.66 188.94L425.82 231.93L423.21 231.97L423.97 182.73Z" />
				<path id="&lt;Path&gt;" class="shp9" d="M376.79 200.19L382.01 192.62L410.23 216.3L405.9 222.08L376.79 200.19Z" />
				<path id="&lt;Path&gt;" class="shp9" d="M410.95 200.19L405.73 192.62L377.52 216.3L381.84 222.08L410.95 200.19Z" />
			</g>
			<g id="&lt;Group&gt;">
				<path id="&lt;Path&gt;" class="shp101" d="M498.54 740.36L305.16 740.36C296.55 740.36 289.52 733.49 289.33 724.88L285.72 566.27C285.52 557.39 292.66 550.07 301.55 550.07L502.89 550.07C511.81 550.07 518.96 557.43 518.72 566.35L514.37 724.96C514.14 733.53 507.12 740.36 498.54 740.36Z" />
				<g id="&lt;Group&gt;">
					<path id="&lt;Compound Path&gt;" fill-rule="evenodd" class="shp102" d="M498.54 740.86L305.16 740.86C296.36 740.86 289.03 733.7 288.83 724.9L285.22 566.29C285.12 561.85 286.77 557.66 289.87 554.49C292.97 551.32 297.12 549.57 301.55 549.57L502.89 549.57C507.34 549.57 511.5 551.33 514.6 554.52C517.7 557.71 519.34 561.91 519.22 566.36L514.87 724.97C514.63 733.88 507.45 740.86 498.54 740.86ZM301.55 550.57C297.39 550.57 293.49 552.21 290.58 555.19C287.67 558.17 286.12 562.1 286.22 566.26L289.83 724.87C290.02 733.14 296.89 739.86 305.16 739.86L498.54 739.86C506.91 739.86 513.64 733.31 513.87 724.95L518.22 566.33C518.34 562.16 516.79 558.21 513.88 555.22C510.97 552.22 507.06 550.57 502.89 550.57L301.55 550.57Z" />
				</g>
				<g id="&lt;Group&gt;">
					<path id="&lt;Path&gt;" class="shp9" d="M439.54 586.87L337.84 586.87L337.84 582.52L439.54 582.52L439.54 586.87Z" />
					<path id="&lt;Path&gt;" class="shp9" d="M388.69 597.46L337.84 597.46L337.84 593.11L388.69 593.11L388.69 597.46Z" />
					<path id="&lt;Path&gt;" class="shp9" d="M388.69 606.3L337.84 606.3L337.84 601.95L388.69 601.95L388.69 606.3Z" />
					<path id="&lt;Path&gt;" class="shp9" d="M434.86 606.3L394.4 606.3L394.4 601.95L434.86 601.95L434.86 606.3Z" />
					<path id="&lt;Path&gt;" class="shp9" d="M419.82 615.15L337.84 615.15L337.84 610.79L419.82 610.79L419.82 615.15Z" />
					<path id="&lt;Path&gt;" class="shp9" d="M367.02 623.99L337.84 623.99L337.84 619.63L367.02 619.63L367.02 623.99Z" />
					<path id="&lt;Path&gt;" class="shp9" d="M423.49 650.51L373.02 650.51L373.02 646.16L423.49 646.16L423.49 650.51Z" />
					<path id="&lt;Path&gt;" class="shp9" d="M429.3 632.83L337.84 632.83L337.84 628.48L429.3 628.48L429.3 632.83Z" />
					<path id="&lt;Path&gt;" class="shp9" d="M408.2 641.67L337.84 641.67L337.84 637.32L408.2 637.32L408.2 641.67Z" />
					<path id="&lt;Path&gt;" class="shp9" d="M370.94 650.51L337.84 650.51L337.84 646.16L370.94 646.16L370.94 650.51Z" />
					<path id="&lt;Path&gt;" class="shp9" d="M388.69 659.36L337.84 659.36L337.84 655L388.69 655L388.69 659.36Z" />
					<path id="&lt;Path&gt;" class="shp9" d="M352.43 668.2L337.84 668.2L337.84 663.85L352.43 663.85L352.43 668.2Z" />
					<path id="&lt;Path&gt;" class="shp9" d="M411.36 668.2L358.43 668.2L358.43 663.85L411.36 663.85L411.36 668.2Z" />
					<path id="&lt;Path&gt;" class="shp9" d="M423.49 676.78L373.02 676.78L373.02 672.43L423.49 672.43L423.49 676.78Z" />
					<path id="&lt;Path&gt;" class="shp9" d="M370.94 676.78L337.84 676.78L337.84 672.43L370.94 672.43L370.94 676.78Z" />
					<path id="&lt;Path&gt;" class="shp9" d="M388.69 685.62L337.84 685.62L337.84 681.27L388.69 681.27L388.69 685.62Z" />
					<path id="&lt;Path&gt;" class="shp9" d="M352.43 694.46L337.84 694.46L337.84 690.11L352.43 690.11L352.43 694.46Z" />
					<path id="&lt;Path&gt;" class="shp9" d="M411.36 694.46L358.43 694.46L358.43 690.11L411.36 690.11L411.36 694.46Z" />
				</g>
			</g>
			<path id="&lt;Path&gt;" class="shp103" d="M1017.44 217.68C1017.44 222.62 1013.43 226.62 1008.5 226.62C1003.56 226.62 999.56 222.62 999.56 217.68C999.56 212.74 1003.56 208.74 1008.5 208.74C1013.43 208.74 1017.44 212.74 1017.44 217.68Z" />
			<path id="&lt;Path&gt;" class="shp104" d="M179.63 424.95C179.63 431.1 174.65 436.08 168.51 436.08C162.37 436.08 157.39 431.1 157.39 424.95C157.39 418.81 162.37 413.83 168.51 413.83C174.65 413.83 179.63 418.81 179.63 424.95Z" />
			<path id="&lt;Path&gt;" class="shp105" d="M1043.69 217.68C1043.69 222.62 1039.68 226.62 1034.75 226.62C1029.81 226.62 1025.81 222.62 1025.81 217.68C1025.81 212.74 1029.81 208.74 1034.75 208.74C1039.68 208.74 1043.69 212.74 1043.69 217.68Z" />
			<path id="&lt;Path&gt;" class="shp106" d="M464.73 279.13C464.73 282.62 461.9 285.45 458.41 285.45C454.92 285.45 452.09 282.62 452.09 279.13C452.09 275.64 454.92 272.81 458.41 272.81C461.9 272.81 464.73 275.64 464.73 279.13Z" />
			<path id="&lt;Path&gt;" class="shp107" d="M888.04 558.01C888.04 561.5 885.21 564.33 881.72 564.33C878.23 564.33 875.4 561.5 875.4 558.01C875.4 554.52 878.23 551.69 881.72 551.69C885.21 551.69 888.04 554.52 888.04 558.01Z" />
			<path id="&lt;Path&gt;" class="shp108" d="M230.33 621.02C230.33 624.14 227.8 626.67 224.68 626.67C221.56 626.67 219.03 624.14 219.03 621.02C219.03 617.9 221.56 615.37 224.68 615.37C227.8 615.37 230.33 617.9 230.33 621.02Z" />
			<g id="&lt;Group&gt;">
				<path id="&lt;Path&gt;" class="shp109" d="M320.99 565.54L223.39 565.54C215.54 565.54 209.1 559.32 208.83 551.47L206.66 487.28C206.39 479.04 212.99 472.22 221.22 472.22L322.95 472.22C331.17 472.22 337.76 479.01 337.51 487.23L335.55 551.42C335.31 559.29 328.86 565.54 320.99 565.54Z" />
				<g id="&lt;Group&gt;">
					<path id="&lt;Compound Path&gt;" fill-rule="evenodd" class="shp110" d="M320.99 566.04L223.39 566.04C215.22 566.04 208.61 559.65 208.33 551.48L206.16 487.29C206.03 483.17 207.53 479.27 210.39 476.31C213.26 473.35 217.1 471.72 221.22 471.72L322.95 471.72C327.06 471.72 330.9 473.34 333.76 476.29C336.63 479.25 338.13 483.13 338.01 487.24L336.05 551.44C335.8 559.63 329.18 566.04 320.99 566.04ZM221.22 472.72C217.38 472.72 213.79 474.24 211.11 477.01C208.44 479.77 207.03 483.41 207.16 487.26L209.33 551.45C209.59 559.07 215.76 565.04 223.39 565.04L320.99 565.04C328.64 565.04 334.81 559.05 335.05 551.41L337.01 487.21C337.13 483.38 335.72 479.75 333.05 476.99C330.37 474.23 326.79 472.72 322.95 472.72L221.22 472.72Z" />
				</g>
				<g id="&lt;Group&gt;">
					<path id="&lt;Path&gt;" class="shp9" d="M249.41 495.28L225.35 523.17L249.85 543.98L249.85 533.24L235.68 520.97L248.84 506.08L249.41 495.28Z" />
				</g>
				<g id="&lt;Group&gt;">
					<path id="&lt;Path&gt;" class="shp9" d="M291.71 496.53L315.77 524.43L291.27 545.23L291.27 534.49L305.44 522.22L289.67 505.52L291.71 496.53Z" />
				</g>
				<g id="&lt;Group&gt;">
					<path id="&lt;Path&gt;" class="shp9" d="M254.65 543.98L275.62 497.79L285.47 497.79L261.73 543.98L254.65 543.98Z" />
				</g>
			</g>
			<g id="&lt;Group&gt;">
				<path id="&lt;Path&gt;" class="shp111" d="M977.64 697.64L855.55 697.64C845.72 697.64 837.67 689.85 837.34 680.04L834.63 599.73C834.28 589.43 842.53 580.89 852.84 580.89L980.1 580.89C990.38 580.89 998.63 589.4 998.31 599.67L995.86 679.98C995.56 689.82 987.49 697.64 977.64 697.64Z" />
				<g id="&lt;Group&gt;">
					<path id="&lt;Compound Path&gt;" fill-rule="evenodd" class="shp110" d="M977.64 698.14L855.55 698.14C845.4 698.14 837.18 690.2 836.84 680.05L834.13 599.75C833.96 594.63 835.82 589.79 839.38 586.1C842.94 582.42 847.72 580.39 852.84 580.39L980.1 580.39C985.21 580.39 989.98 582.41 993.54 586.08C997.09 589.75 998.97 594.58 998.81 599.69L996.36 679.99C996.05 690.17 987.83 698.14 977.64 698.14ZM852.84 581.39C847.99 581.39 843.47 583.31 840.1 586.8C836.73 590.28 834.96 594.87 835.13 599.71L837.84 680.02C838.16 689.62 845.94 697.14 855.55 697.14L977.64 697.14C987.28 697.14 995.06 689.6 995.36 679.96L997.81 599.66C997.96 594.82 996.19 590.25 992.82 586.78C989.45 583.31 984.93 581.39 980.1 581.39L852.84 581.39Z" />
				</g>
				<path id="&lt;Path&gt;" class="shp97" d="M970.91 660.23L859.09 660.23L859.09 593.82L970.91 593.82L970.91 660.23Z" />
				<path id="&lt;Path&gt;" class="shp9" d="M905.1 610.3L905.1 643.75L933.68 625.5L905.1 610.3Z" />
				<path id="&lt;Path&gt;" class="shp97" d="M970.91 678.55L859.09 678.55L859.09 672.47L970.91 672.47L970.91 678.55Z" />
				<path id="&lt;Path&gt;" class="shp9" d="M888.04 672.47L888.04 678.55L859.09 678.55L859.09 672.47L888.04 672.47Z" />
			</g>
			<g id="&lt;Group&gt;">
				<g id="&lt;Group&gt;">
					<path id="&lt;Compound Path&gt;" fill-rule="evenodd" class="shp112" d="M787.07 605.96C785.66 608.33 784.1 610.46 782.43 612.37L785.15 620.21L773.38 629.12L772.21 620.28C769.8 621.37 767.35 621.96 764.96 621.97L763.85 626.02L762.22 631.95L751.69 627.84L755.72 618.55C753.9 616.99 752.39 614.96 751.21 612.56L744.64 618.84L741.52 604.13L748.37 599.82C748.28 596.59 748.54 593.17 749.24 589.65L742.69 588.55L748.8 571.84L754.48 575.04C756.16 571.9 758.1 569.1 760.22 566.68L757.5 558.84L769.28 549.93L770.46 558.77C772.87 557.68 775.31 557.09 777.7 557.08L780.27 547.73L790.96 551.21L786.94 560.49C787.34 560.83 787.72 561.2 788.08 561.6C789.4 562.97 790.53 564.61 791.44 566.5L798.02 560.21L801.14 574.92L794.28 579.23C794.37 581.89 794.2 584.69 793.73 587.55C793.65 588.16 793.53 588.79 793.41 589.41L799.97 590.5L793.85 607.21L788.18 603.99C787.82 604.66 787.46 605.32 787.07 605.96ZM771.34 589.51L771.34 589.53C771.34 589.51 771.34 589.5 771.35 589.49C771.35 589.49 771.34 589.51 771.34 589.51ZM771.35 589.49L777.17 572.83C779.19 574.31 774.57 580.28 771.35 589.49ZM765.49 606.22C766.95 605.78 768.09 598.79 771.31 589.61L765.49 606.22Z" />
				</g>
				<path id="&lt;Compound Path&gt;" fill-rule="evenodd" class="shp113" d="M787.07 605.96L777.87 611.63L785.15 620.21L773.38 629.12L763.85 626.02L758.27 624.2L759.8 627.1L762.22 631.95L747.13 627.03L736.59 622.92L739.99 615.07L729.54 613.92L734.97 594.09L745.99 563.56L742.41 553.93L754.19 545.02L763.36 549.37L765.33 542.18L775.87 546.29L780.27 547.73L790.96 551.21L788.13 556.99L798.02 560.21L800.3 574.5L793.38 577.88L792.72 587.08L793.73 587.55L799.97 590.5L793.85 607.21L787.07 605.96ZM782.92 555.3L785.7 561.92L788.13 556.99L782.92 555.3ZM765.49 606.22L771.34 589.53L777.17 572.83C771.32 570.79 763.96 576.59 760.72 585.82C757.49 595.02 759.63 604.16 765.49 606.22Z" />
				<g id="&lt;Group&gt;">
					<path id="&lt;Compound Path&gt;" fill-rule="evenodd" class="shp114" d="M773.09 599.08C771.4 602.22 769.46 605.03 767.34 607.45L770.05 615.29L758.28 624.2L757.11 615.37C754.7 616.45 752.25 617.05 749.86 617.06L747.13 627.03L736.6 622.92L740.62 613.64C738.8 612.07 737.29 610.04 736.12 607.63L729.54 613.92L726.42 599.2L733.28 594.9C733.18 591.66 733.46 588.24 734.15 584.73L727.59 583.63L733.71 566.93L739.38 570.13C741.07 566.99 743.01 564.18 745.13 561.76L742.42 553.92L754.19 545.01L755.36 553.85C757.77 552.76 760.22 552.17 762.61 552.16L765.34 542.18L775.87 546.29L771.85 555.58C773.67 557.14 775.18 559.17 776.35 561.58L782.92 555.3L786.05 570.01L779.19 574.31C779.29 577.55 779.01 580.97 778.32 584.48L784.88 585.58L778.76 602.28L773.09 599.08ZM766.84 588.32C770.07 579.1 767.94 569.97 762.08 567.91C756.22 565.86 748.86 571.67 745.63 580.89C742.4 590.11 744.53 599.25 750.39 601.3C756.25 603.35 763.61 597.54 766.84 588.32Z" />
				</g>
				<path id="&lt;Path&gt;" class="shp115" d="M801.14 574.92L786.05 570.01L779.19 574.31L794.28 579.23L801.14 574.92Z" />
				<path id="&lt;Path&gt;" class="shp116" d="M785.15 620.21L770.05 615.29L767.34 607.45L782.43 612.37L785.15 620.21Z" />
				<path id="&lt;Path&gt;" class="shp115" d="M771.85 555.58L780.12 557.97L782.92 555.3L788.42 557.08L790.96 551.21L775.87 546.29L771.85 555.58Z" />
				<path id="&lt;Path&gt;" class="shp115" d="M749.86 617.06L757.77 620.35L757.11 615.37C754.28 616.86 751.86 617.43 749.86 617.06Z" />
				<path id="&lt;Path&gt;" class="shp115" d="M751.08 571.81L764.39 578.84C765.68 577.12 766.82 575.91 767.82 575.22C765.5 565.44 759.92 564.3 751.08 571.81Z" />
			</g>
			<path id="&lt;Path&gt;" class="shp117" d="M445.58 73.93L458.41 99.63L449.83 103.52L437.84 79.92L445.58 73.93Z" />
			<path id="&lt;Path&gt;" class="shp118" d="M156.68 672.61L168.55 685.64L173.21 680.26L162 667.92L156.68 672.61Z" />
			<path id="&lt;Path&gt;" class="shp119" d="M760.23 230.74L748.27 237.99L743.48 228.91L756.55 221.27L760.23 230.74Z" />
			<path id="&lt;Path&gt;" class="shp119" d="M819.12 690.17L801.98 702.34L797.18 693.25L813.82 683.53L819.12 690.17Z" />
			<g id="&lt;Group&gt;">
				<path id="&lt;Path&gt;" class="shp120" d="M796.47 168.59L793.58 101.28L881.72 101.28L878.1 168.4L796.47 168.59Z" />
				<path id="&lt;Path&gt;" class="shp121" d="M793.58 101.28L790.94 105.25L793.58 168.59L796.47 168.59L793.58 101.28Z" />
				<path id="&lt;Path&gt;" class="shp9" d="M822.85 114.72L809.01 113.24L810.91 159.36L822.85 158.19L822.85 153.42L815.93 153.58L815.14 118.01L822.85 118.23L822.85 114.72Z" />
				<path id="&lt;Path&gt;" class="shp9" d="M851.17 114.72L865 113.24L863.11 159.36L851.17 158.19L851.17 153.42L858.09 153.58L858.88 118.01L851.17 118.23L851.17 114.72Z" />
			</g>
			<g id="&lt;Group&gt;">
				<path id="&lt;Path&gt;" class="shp122" d="M188.71 315.96L190.68 270.07L130.59 270.07L133.06 315.83L188.71 315.96Z" />
				<path id="&lt;Path&gt;" class="shp123" d="M190.68 270.07L192.48 272.78L190.68 315.96L188.71 315.96L190.68 270.07Z" />
				<path id="&lt;Path&gt;" class="shp9" d="M167.53 279.3C171.92 279.13 174.51 279.23 175.28 279.59C176.06 279.94 175.96 283.7 174.98 290.86L177.61 293.27L175.15 295.65C175.24 302.9 174.77 306.83 173.73 307.43C172.7 308.04 170.42 308.04 166.89 307.43L166.89 304.72C169.77 304.9 171.45 304.8 171.92 304.41C172.4 304.02 172.61 300.66 172.57 294.32L173.73 293.05L172.57 291.67C172.71 287.16 172.74 284.28 172.66 283.04C172.6 282.21 170.89 281.78 167.53 281.74L167.53 279.3Z" />
				<path id="&lt;Path&gt;" class="shp9" d="M152.44 279.3C148.05 279.13 145.47 279.23 144.69 279.59C143.92 279.94 144.02 283.7 144.99 290.86L142.37 293.27L144.82 295.65C144.73 302.9 145.21 306.83 146.24 307.43C147.28 308.04 149.56 308.04 153.09 307.43L153.09 304.72C150.2 304.9 148.52 304.8 148.05 304.41C147.58 304.02 147.36 300.66 147.4 294.32L146.24 293.05L147.4 291.67C147.26 287.16 147.23 284.28 147.32 283.04C147.38 282.21 149.08 281.78 152.44 281.74L152.44 279.3Z" />
			</g>
			<g id="&lt;Group&gt;">
				<g id="&lt;Group&gt;">
					<path id="&lt;Compound Path&gt;" fill-rule="evenodd" class="shp91" d="M695.72 174.66L680.99 136.13L719.18 144.1L695.72 174.66ZM682.58 137.48L696.01 172.63L717.42 144.75L682.58 137.48Z" />
				</g>
				<g id="&lt;Group&gt;">
					<path id="&lt;Path&gt;" class="shp91" d="M801.25 721.04L800.44 720.45L813.39 702.81L814.19 703.4L801.25 721.04Z" />
				</g>
				<g id="&lt;Group&gt;">
					<path id="&lt;Path&gt;" class="shp91" d="M679.83 558.32L665.94 541.03L666.72 540.4L680.61 557.69L679.83 558.32Z" />
				</g>
				<g id="&lt;Group&gt;">
					<path id="&lt;Path&gt;" class="shp91" d="M251.17 679.76L223.44 659.64L224.03 658.83L251.76 678.95L251.17 679.76Z" />
				</g>
				<g id="&lt;Group&gt;">
					<path id="&lt;Path&gt;" class="shp91" d="M227.62 683.23L226.82 682.62L247.58 655.37L248.38 655.97L227.62 683.23Z" />
				</g>
				<g id="&lt;Group&gt;">
					<path id="&lt;Path&gt;" class="shp91" d="M206.42 384.74L188.47 375.31L188.94 374.43L206.89 383.86L206.42 384.74Z" />
				</g>
				<g id="&lt;Group&gt;">
					<path id="&lt;Path&gt;" class="shp91" d="M896.1 142.74L895.35 142.08L916.09 118.42L916.84 119.08L896.1 142.74Z" />
				</g>
				<g id="&lt;Group&gt;">
					<path id="&lt;Path&gt;" class="shp91" d="M501.55 219.05L492.28 200.41L493.18 199.97L502.45 218.6L501.55 219.05Z" />
				</g>
				<g id="&lt;Group&gt;">
					<path id="&lt;Path&gt;" class="shp91" d="M346.19 534.32L345.55 533.55L369.4 513.61L370.04 514.38L346.19 534.32Z" />
				</g>
			</g>
		</g>
	</g>
</svg>